<svg width="255" height="256" viewBox="0 0 255 256" fill="none" xmlns="http://www.w3.org/2000/svg">
<path d="M66.3002 214.803H220.677C222.289 212.977 224.191 209.953 224.66 209.325C229.356 202.98 233.257 196.085 236.278 188.793C248.661 159.121 246.478 124.625 233.478 95.4627C223.839 73.8795 206.989 55.2492 183.289 45.9621C161.425 37.389 131.269 35.1654 112.7 51.0621C94.1309 66.9588 97.1807 95.0292 78.53 110.921C78.02 111.365 77.4743 111.793 76.9286 112.206C66.7694 119.825 52.7954 119.662 40.7186 122.794C28.1879 126.047 16.6874 134.182 12.3371 145.744C6.58938 161.044 11.7863 178.557 20.6705 191.919C31.508 208.214 48.0371 212.865 66.3002 214.803Z" fill="#FDB7A4"/>
<path opacity="0.7" d="M66.3002 214.803H220.677C222.289 212.977 224.191 209.953 224.66 209.325C229.356 202.98 233.257 196.085 236.278 188.793C248.661 159.121 246.478 124.625 233.478 95.4627C223.839 73.8795 206.989 55.2492 183.289 45.9621C161.425 37.389 131.269 35.1654 112.7 51.0621C94.1309 66.9588 97.1807 95.0292 78.53 110.921C78.02 111.365 77.4743 111.793 76.9286 112.206C66.7694 119.825 52.7954 119.662 40.7186 122.794C28.1879 126.047 16.6874 134.182 12.3371 145.744C6.58938 161.044 11.7863 178.557 20.6705 191.919C31.508 208.214 48.0371 212.865 66.3002 214.803Z" fill="white"/>
<path d="M77.5202 202.563C77.5202 202.563 77.7497 194.357 77.459 187.298C77.1683 180.24 77.7548 165.103 77.7548 165.103" stroke="#263238" stroke-miterlimit="10"/>
<path d="M77.6171 174.013L74.4092 171.494" stroke="#263238" stroke-miterlimit="10"/>
<path d="M77.5864 175.752L78.7237 173.906" stroke="#263238" stroke-miterlimit="10"/>
<path d="M77.3213 183.05L80.1722 180.699" stroke="#263238" stroke-miterlimit="10"/>
<path d="M77.7547 168.214L76.2502 166.847" stroke="#263238" stroke-miterlimit="10"/>
<path d="M77.296 184.335L75.4141 182.316" stroke="#263238" stroke-miterlimit="10"/>
<path d="M77.4639 192.256L73.5471 188.686" stroke="#263238" stroke-miterlimit="10"/>
<path d="M77.561 196.657C78.5605 196.275 79.5319 195.823 80.468 195.305" stroke="#263238" stroke-miterlimit="10"/>
<path d="M75.4036 175.283C73.8277 174.064 68.5543 174.263 67.5343 176.813C66.5143 179.363 69.7324 183.443 72.8434 183.162C74.0572 183.05 74.5825 182.964 75.0568 182.285L70.7218 178.047L75.4138 181.816C75.5498 181.572 75.6576 181.314 75.7351 181.046C75.7912 180.857 75.8371 180.658 75.883 180.444C76.1839 178.929 76.8724 176.42 75.4036 175.283Z" fill="#FDB7A4"/>
<path d="M85.6035 172.355C85.6053 172.384 85.6053 172.413 85.6035 172.442C85.1802 174.324 83.028 175.39 81.2175 175.232C80.9659 175.207 80.7168 175.161 80.4729 175.094C80.0507 175.768 79.7892 176.531 79.7087 177.322C79.6283 178.114 79.7309 178.913 80.0088 179.659C80.086 179.869 80.1888 180.07 80.3148 180.255C80.8248 179.822 86.5521 174.951 86.5521 174.951L80.631 180.658C82.4109 182.571 86.6031 182.311 88.0617 178.766C89.5203 175.222 87.6588 172.86 85.6035 172.355Z" fill="#FDB7A4"/>
<path d="M82.7017 165.771C79.6417 165.093 76.8826 166.491 76.9336 169.693C76.9455 170.404 77.1034 171.104 77.3973 171.75C77.6912 172.397 78.1149 172.976 78.6421 173.452L81.7735 169.107L79.1113 173.814C79.3617 173.983 79.6282 174.126 79.9069 174.243C80.2961 174.401 80.7071 174.499 81.1258 174.533C82.9312 174.691 85.0834 173.625 85.5118 171.744C85.9861 169.637 85.7719 166.445 82.7017 165.771Z" fill="#FDB7A4"/>
<path d="M79.1164 154.623C78.3389 154.935 77.5779 155.288 76.8367 155.679C74.8732 156.637 73.3228 159.759 74.8732 162.405C75.4155 163.485 76.3579 164.31 77.4997 164.706L78.2851 157.056L77.9689 164.823C78.118 164.839 78.2685 164.839 78.4177 164.823C79.6927 164.69 81.7123 163.165 81.9061 160.034C82.0999 156.903 79.1164 154.623 79.1164 154.623Z" fill="#FDB7A4"/>
<path d="M70.1456 161.569L76.0718 166.307C76.1361 166.091 76.1552 165.863 76.1279 165.639C75.8576 162.926 73.1495 161.355 71.3594 160.789C69.5693 160.223 68.3351 161.233 69.4826 163.849C70.6301 166.465 73.6493 167.684 74.9957 167.307C75.3155 167.229 75.6017 167.05 75.8117 166.797L70.1456 161.569Z" fill="#FDB7A4"/>
<path d="M74.2254 167.643C72.9453 167.684 70.8747 166.771 69.666 165.011C69.0407 164.958 68.4191 165.149 67.932 165.545C67.445 165.941 67.1305 166.51 67.0548 167.133C66.453 169.964 68.4981 172.922 71.4459 172.56C72.3626 172.51 73.2328 172.14 73.9041 171.514L68.6307 166.705L74.2713 171.004C74.3834 170.802 74.4544 170.58 74.4804 170.351C74.6635 169.443 74.5748 168.501 74.2254 167.643Z" fill="#FDB7A4"/>
<path d="M74.195 183.361C73.71 183.57 73.1922 183.693 72.665 183.723C70.7372 183.902 68.7737 182.392 67.7945 180.617C66.6113 180.811 65.6678 181.444 65.4383 182.739C64.8569 186.049 67.9169 190.389 71.0126 189.721C71.8177 189.562 72.5627 189.182 73.1648 188.624L66.4073 182.127L73.5473 188.186C73.9567 187.662 74.2206 187.039 74.3123 186.38C74.6538 185.395 74.6119 184.317 74.195 183.361Z" fill="#FDB7A4"/>
<path d="M87.7865 190.15C85.517 187.523 82.8089 189.874 82.8089 189.874C82.8089 189.874 81.1514 190.425 80.5293 192.771C80.331 193.484 80.3595 194.242 80.6109 194.938L87.4448 190.955L80.7741 195.311C81.3963 196.489 82.7529 197.213 84.6144 196.688C87.6233 195.846 90.0611 192.781 87.7865 190.15Z" fill="#FDB7A4"/>
<path d="M82.1253 200.094H72.6648V214.104H82.1253V200.094Z" fill="#263238"/>
<path d="M155.851 159.305L155.484 156.469C155.086 153.766 154.056 146.687 154.056 146.004C154.056 145.162 150.149 142.735 150.149 142.735L145.447 149.426L142.219 155.724C142.219 155.724 144.294 157.606 146.135 158.988C147.338 159.852 148.703 160.463 150.149 160.784L159.559 193.056L165.888 180.266L155.851 159.305Z" fill="white" stroke="#263238" stroke-linecap="round" stroke-linejoin="round"/>
<path d="M147.284 132.851L140.519 133.184C139.124 133.253 138.048 134.44 138.117 135.835L139.017 154.112C139.086 155.507 140.273 156.583 141.668 156.514L148.433 156.181C149.828 156.112 150.904 154.925 150.835 153.53L149.935 135.253C149.866 133.858 148.679 132.782 147.284 132.851Z" fill="white" stroke="#263238" stroke-linecap="round" stroke-linejoin="round"/>
<path d="M148.024 132.795L141.26 133.128C139.864 133.196 138.789 134.383 138.858 135.779L139.758 154.055C139.827 155.451 141.013 156.526 142.409 156.457L149.173 156.124C150.569 156.056 151.644 154.869 151.576 153.473L150.675 135.197C150.607 133.801 149.42 132.726 148.024 132.795Z" fill="#263238" stroke="#263238" stroke-linecap="round" stroke-linejoin="round"/>
<path d="M150.323 135.998C150.291 135.426 150.068 134.882 149.689 134.453C149.311 134.024 148.799 133.735 148.237 133.631L147.426 134.733L142.785 135.024L141.336 134.055L147.706 133.616H147.671L141.683 133.912C141.015 133.95 140.388 134.25 139.939 134.746C139.489 135.242 139.253 135.895 139.281 136.564L140.107 153.302C140.145 153.97 140.445 154.597 140.941 155.046C141.437 155.496 142.09 155.732 142.759 155.704L148.742 155.408C149.41 155.37 150.036 155.07 150.486 154.574C150.935 154.078 151.171 153.425 151.144 152.756L150.323 135.998Z" fill="#FDB7A4" stroke="#263238" stroke-linecap="round" stroke-linejoin="round"/>
<path d="M153.592 159.876C152.694 159.762 151.86 159.353 151.22 158.713C150.58 158.073 150.171 157.239 150.057 156.341C149.593 153.113 151.134 149.426 151.134 149.426C150.102 148.826 149.022 148.314 147.905 147.896C146.212 147.279 147.441 144.05 148.058 144.973C148.675 145.896 152.975 146.503 154.204 147.279C155.433 148.054 155.734 152.506 155.734 152.506L155.841 159.31" fill="white"/>
<path d="M153.592 159.876C152.694 159.762 151.86 159.353 151.22 158.713C150.58 158.073 150.171 157.239 150.057 156.341C149.593 153.113 151.134 149.426 151.134 149.426C150.102 148.826 149.022 148.314 147.905 147.896C146.212 147.279 147.441 144.05 148.058 144.973C148.675 145.896 152.975 146.503 154.204 147.279C155.433 148.054 155.734 152.506 155.734 152.506L155.841 159.31" stroke="#263238" stroke-linecap="round" stroke-linejoin="round"/>
<path d="M198.268 214.803L213.69 174.39C214.305 172.779 214.272 170.992 213.598 169.405C212.924 167.818 211.661 166.554 210.074 165.878C208.457 165.191 206.633 165.17 205 165.819C203.368 166.469 202.057 167.736 201.353 169.346L181.529 214.803H198.268Z" fill="#263238" stroke="#263238" stroke-linecap="round" stroke-linejoin="round"/>
<path d="M159.462 196.443C158.86 196.897 146.655 211.477 143.876 214.803H179.52C181.667 211.819 190.286 199.6 193.989 191.001C198.242 181.143 198.579 169.413 197.732 165.843C196.885 162.273 196.029 159.723 196.029 159.723C196.029 159.723 179.52 162.614 170.85 167.204C170.85 167.204 160.308 175.364 158.268 180.633C156.228 185.901 160.14 195.933 159.462 196.443Z" fill="#FDB7A4" stroke="#263238" stroke-linecap="round" stroke-linejoin="round"/>
<path d="M188.659 190.522C189.052 189.502 189.419 188.482 189.756 187.462C191.332 182.647 193.326 176.843 192.27 171.743C191.25 166.812 184.962 167.322 181.392 170.04C177.822 172.758 175.272 179.22 173.742 184.83C172.212 190.44 165.719 203.251 165.719 203.251C165.719 203.251 142.428 198.32 139.709 197.3C136.991 196.28 133.248 194.581 130.698 192.2C128.148 189.818 121.349 186.248 118.968 183.53C116.586 180.811 116.249 181.658 116.418 182.678C116.586 183.698 117.779 184.891 118.626 185.911C119.43 186.806 120.281 187.657 121.176 188.461C121.176 188.461 117.269 187.61 115.398 186.931C113.526 186.253 112.679 185.228 112.169 186.08C111.659 186.931 112.169 187.951 113.868 188.798C115.566 189.644 122.196 191.521 122.196 191.521H115.398C114.036 191.521 112.169 192.368 113.016 193.22C113.863 194.071 118.116 193.561 119.309 193.561H122.879C122.879 193.561 118.116 195.26 116.759 195.428C115.403 195.596 115.566 196.958 116.586 197.131C117.606 197.305 124.919 195.77 124.919 195.77C124.919 195.77 127.979 198.151 129.336 198.488C130.57 198.718 131.824 198.833 133.079 198.83C133.079 198.83 145.319 206.99 154.499 210.218C160.808 212.441 172.579 218.587 177.587 211.498C181.142 206.459 186.456 196.234 188.659 190.522Z" fill="white" stroke="#263238" stroke-linecap="round" stroke-linejoin="round"/>
<path d="M184.289 117.505C184.289 117.505 180.647 122.238 180.28 124.788C179.913 127.338 180.464 128.791 179.189 129.52C177.914 130.25 174.089 130.245 173.548 132.07C173.007 133.896 175.547 137.17 175.547 137.17C175.547 137.17 175.914 145.361 176.644 147.177C177.373 148.992 183.921 149.365 183.921 149.365L182.83 157.173L193.57 153.898L196.483 143.341C196.483 143.341 200.67 141.521 202.123 135.691C203.577 129.862 201.032 123.859 194.662 120.04C188.292 116.22 184.289 117.505 184.289 117.505Z" fill="white" stroke="#263238" stroke-linecap="round" stroke-linejoin="round"/>
<path d="M183.921 149.36L189.383 149.926L183.554 153.001L183.921 149.36Z" fill="#263238" stroke="#263238" stroke-linecap="round" stroke-linejoin="round"/>
<path d="M178.281 138.257C178.281 138.257 181.739 138.803 183.559 136.436" stroke="#263238" stroke-linecap="round" stroke-linejoin="round"/>
<path d="M183.039 129.016C182.769 129.689 182.233 130.112 181.84 129.954C181.448 129.796 181.33 129.123 181.621 128.449C181.912 127.776 182.432 127.348 182.82 127.506C183.207 127.664 183.309 128.337 183.039 129.016Z" fill="#263238"/>
<path d="M182.611 124.023C182.611 124.023 184.62 122.773 185.941 125.272" stroke="#263238" stroke-linecap="round" stroke-linejoin="round"/>
<path d="M179.484 138.379C179.484 138.379 179.418 141.22 180.458 141.154C181.499 141.087 182.748 137.334 182.748 137.334C182.748 137.334 181.983 138.236 179.484 138.379Z" fill="#263238" stroke="#263238" stroke-linecap="round" stroke-linejoin="round"/>
<path d="M195.498 152.583C195.498 152.583 181.902 157.683 177.822 159.044C173.742 160.406 169.662 168.734 169.662 168.734C169.662 168.734 189.888 161.931 193.632 160.911L196.518 160.574C196.518 160.574 197.37 153.603 195.498 152.583Z" fill="white" stroke="#263238" stroke-linecap="round" stroke-linejoin="round"/>
<path d="M203.663 109.304C203.663 109.304 203.184 109.544 204.867 105.943C206.55 102.343 198.375 98.9716 189.006 101.863C179.637 104.755 180.846 112.441 182.034 116.046C183.222 119.652 190.194 118.928 189.965 121.33C189.735 123.732 188.282 126.139 190.929 128.302C193.575 130.464 191.408 129.985 192.127 131.188C192.846 132.392 195.253 131.668 195.972 132.147C196.692 132.626 198.614 134.309 196.452 137.675C194.289 141.041 191.887 140.557 192.372 144.402C192.856 148.248 193.815 151.853 198.864 153.297C203.913 154.74 208.233 154.98 208.957 150.895C209.681 146.81 207.034 145.846 209.916 144.163C212.797 142.48 220.733 141.761 221.692 133.83C222.651 125.9 220.728 118.678 215.22 114.113C211.938 111.386 207.911 109.71 203.663 109.304Z" fill="#263238" stroke="#263238" stroke-linecap="round" stroke-linejoin="round"/>
<path d="M199.231 148.972C200.461 151.16 202.944 152.108 204.331 151.598C206.371 150.823 206.647 146.962 204.071 146.447C201.496 145.932 200.726 147.467 202.031 148.763" stroke="#9C9C9C" stroke-linecap="round" stroke-linejoin="round"/>
<path d="M189.439 115.118C190.73 117.158 193.861 118.499 199.415 120.182C207.912 122.758 209.972 129.454 207.912 132.8C205.851 136.145 199.67 139.496 198.64 144.642C198.477 145.432 198.451 146.245 198.563 147.044" stroke="#9C9C9C" stroke-linecap="round" stroke-linejoin="round"/>
<path d="M195.549 109.886C195.549 109.886 198.64 109.625 197.079 107.05C195.519 104.474 189.613 106.54 188.843 111.171C188.706 111.887 188.683 112.62 188.777 113.343" stroke="#9C9C9C" stroke-linecap="round" stroke-linejoin="round"/>
<path d="M208.32 119.193C210.977 120.596 214.226 123.339 214.603 128.424C215.113 135.375 212.027 137.691 206.882 140.781C201.736 143.872 204.046 146.463 204.046 146.463" stroke="#9C9C9C" stroke-linecap="round" stroke-linejoin="round"/>
<path d="M204.821 117.867C205.518 118.027 206.201 118.245 206.861 118.52" stroke="#9C9C9C" stroke-linecap="round" stroke-linejoin="round"/>
<path d="M137.419 58.3909C133.568 59.5493 130.057 61.6288 127.19 64.4493C124.324 67.2699 122.187 70.7465 120.967 74.5783" stroke="#263238" stroke-miterlimit="10"/>
<path d="M149.675 57.9063C147.975 57.5427 146.241 57.3598 144.503 57.3606C143.341 57.3618 142.181 57.4436 141.03 57.6054" stroke="#263238" stroke-miterlimit="10"/>
<path d="M168.081 89.3834C169.974 83.2678 169.422 76.656 166.54 70.9393C163.658 65.2226 158.671 60.8467 152.628 58.7324" stroke="#263238" stroke-miterlimit="10"/>
<path d="M165.801 94.5395C166.483 93.3826 167.068 92.1715 167.55 90.9185" stroke="#263238" stroke-miterlimit="10"/>
<path d="M134.171 104.479C138.651 106.539 143.644 107.211 148.509 106.41C153.375 105.608 157.889 103.369 161.471 99.9812" stroke="#263238" stroke-miterlimit="10"/>
<path d="M130.259 102.215C130.989 102.73 131.745 103.206 132.523 103.643" stroke="#263238" stroke-miterlimit="10"/>
<path d="M120.13 78.1228C119.455 82.3148 119.873 86.6101 121.342 90.5937C122.812 94.5773 125.284 98.1145 128.52 100.864" stroke="#263238" stroke-miterlimit="10"/>
<path d="M144.503 104.388C156.84 104.388 166.841 94.3866 166.841 82.0497C166.841 69.7127 156.84 59.7117 144.503 59.7117C132.166 59.7117 122.165 69.7127 122.165 82.0497C122.165 94.3866 132.166 104.388 144.503 104.388Z" fill="white" stroke="#263238" stroke-miterlimit="10"/>
<path d="M158.238 96.8702H133.38C133.038 96.87 132.708 96.7467 132.449 96.5229C132.191 96.2991 132.022 95.9897 131.973 95.6513L127.556 66.8668H122.028C121.652 66.8668 121.291 66.7175 121.025 66.4516C120.759 66.1857 120.61 65.8251 120.61 65.449C120.61 65.073 120.759 64.7124 121.025 64.4465C121.291 64.1806 121.652 64.0312 122.028 64.0312H128.785C129.127 64.0316 129.456 64.155 129.714 64.3789C129.972 64.6028 130.14 64.9122 130.188 65.2502L134.609 94.0346H158.238C158.614 94.0346 158.974 94.1839 159.24 94.4498C159.506 94.7157 159.655 95.0763 159.655 95.4524C159.655 95.8284 159.506 96.189 159.24 96.4549C158.974 96.7208 158.614 96.8702 158.238 96.8702Z" fill="white" stroke="#263238" stroke-linecap="round" stroke-linejoin="round"/>
<path d="M122.583 63.6692H120.263C119.322 63.6692 118.56 64.4318 118.56 65.3726V65.5766C118.56 66.5173 119.322 67.28 120.263 67.28H122.583C123.524 67.28 124.287 66.5173 124.287 65.5766V65.3726C124.287 64.4318 123.524 63.6692 122.583 63.6692Z" fill="#263238" stroke="#263238" stroke-linecap="round" stroke-linejoin="round"/>
<path d="M131.253 90.888H134.023L133.707 88.8633H130.932L131.253 90.888Z" fill="#263238" stroke="#263238" stroke-linecap="round" stroke-linejoin="round"/>
<path d="M157.738 89.5008H130.636L128.244 70.8552H160.13L157.738 89.5008Z" fill="#FDB7A4" stroke="#263238" stroke-linecap="round" stroke-linejoin="round"/>
<path d="M137.399 87.4711C137.221 87.4711 137.045 87.436 136.88 87.3678C136.715 87.2997 136.566 87.1997 136.44 87.0738C136.314 86.9478 136.214 86.7983 136.146 86.6337C136.078 86.4691 136.042 86.2927 136.042 86.1145V76.7152C136.042 76.355 136.185 76.0094 136.44 75.7541C136.694 75.4989 137.039 75.3549 137.399 75.3535C137.759 75.3549 138.104 75.4989 138.359 75.7541C138.613 76.0094 138.756 76.355 138.756 76.7152V86.1145C138.756 86.2927 138.721 86.4691 138.652 86.6337C138.584 86.7983 138.484 86.9478 138.358 87.0738C138.232 87.1997 138.083 87.2997 137.918 87.3678C137.754 87.436 137.577 87.4711 137.399 87.4711Z" fill="white" stroke="#263238" stroke-linecap="round" stroke-linejoin="round"/>
<path d="M142.203 87.4711C141.843 87.4711 141.498 87.3282 141.244 87.0738C140.989 86.8194 140.846 86.4743 140.846 86.1145V76.7152C140.846 76.355 140.989 76.0094 141.243 75.7541C141.498 75.4989 141.843 75.3549 142.203 75.3535C142.563 75.3549 142.908 75.4989 143.163 75.7541C143.417 76.0094 143.56 76.355 143.56 76.7152V86.1145C143.56 86.4743 143.417 86.8194 143.162 87.0738C142.908 87.3282 142.563 87.4711 142.203 87.4711Z" fill="white" stroke="#263238" stroke-linecap="round" stroke-linejoin="round"/>
<path d="M147.007 87.4711C146.829 87.4711 146.653 87.436 146.488 87.3678C146.323 87.2997 146.174 87.1997 146.048 87.0738C145.922 86.9478 145.822 86.7983 145.754 86.6337C145.686 86.4691 145.651 86.2927 145.651 86.1145V76.7152C145.651 76.355 145.793 76.0094 146.048 75.7541C146.302 75.4989 146.647 75.3549 147.007 75.3535C147.368 75.3549 147.713 75.4989 147.967 75.7541C148.221 76.0094 148.364 76.355 148.364 76.7152V86.1145C148.364 86.2927 148.329 86.4691 148.261 86.6337C148.192 86.7983 148.092 86.9478 147.966 87.0738C147.841 87.1997 147.691 87.2997 147.526 87.3678C147.362 87.436 147.185 87.4711 147.007 87.4711Z" fill="white" stroke="#263238" stroke-linecap="round" stroke-linejoin="round"/>
<path d="M151.812 87.4711C151.452 87.4711 151.107 87.3282 150.852 87.0738C150.598 86.8194 150.455 86.4743 150.455 86.1145V76.7152C150.455 76.355 150.598 76.0094 150.852 75.7541C151.106 75.4989 151.451 75.3549 151.812 75.3535C152.172 75.3549 152.517 75.4989 152.771 75.7541C153.026 76.0094 153.168 76.355 153.168 76.7152V86.1145C153.168 86.4743 153.025 86.8194 152.771 87.0738C152.517 87.3282 152.171 87.4711 151.812 87.4711Z" fill="white" stroke="#263238" stroke-linecap="round" stroke-linejoin="round"/>
<path d="M139.235 100.078C141.08 100.078 142.576 98.5826 142.576 96.7377C142.576 94.8928 141.08 93.3972 139.235 93.3972C137.39 93.3972 135.895 94.8928 135.895 96.7377C135.895 98.5826 137.39 100.078 139.235 100.078Z" fill="#263238" stroke="#263238" stroke-linecap="round" stroke-linejoin="round"/>
<path d="M139.235 98.1709C140.027 98.1709 140.668 97.5293 140.668 96.7378C140.668 95.9463 140.027 95.3047 139.235 95.3047C138.444 95.3047 137.802 95.9463 137.802 96.7378C137.802 97.5293 138.444 98.1709 139.235 98.1709Z" fill="white" stroke="#263238" stroke-linecap="round" stroke-linejoin="round"/>
<path d="M150.542 100.078C152.387 100.078 153.882 98.5826 153.882 96.7377C153.882 94.8928 152.387 93.3972 150.542 93.3972C148.697 93.3972 147.201 94.8928 147.201 96.7377C147.201 98.5826 148.697 100.078 150.542 100.078Z" fill="#263238" stroke="#263238" stroke-linecap="round" stroke-linejoin="round"/>
<path d="M151.98 96.7378C151.98 96.4543 151.896 96.1773 151.738 95.9416C151.581 95.7059 151.357 95.5222 151.095 95.4138C150.833 95.3053 150.545 95.2769 150.267 95.3322C149.989 95.3875 149.734 95.524 149.533 95.7244C149.333 95.9249 149.196 96.1802 149.141 96.4582C149.086 96.7362 149.114 97.0243 149.223 97.2862C149.331 97.5481 149.515 97.7719 149.75 97.9294C149.986 98.0868 150.263 98.1709 150.547 98.1709C150.735 98.1716 150.922 98.135 151.096 98.0632C151.27 97.9914 151.428 97.8858 151.561 97.7526C151.695 97.6194 151.8 97.4612 151.872 97.287C151.944 97.1128 151.98 96.9262 151.98 96.7378Z" fill="white" stroke="#263238" stroke-linecap="round" stroke-linejoin="round"/>
<path d="M156.55 73.8948H159.497" stroke="#263238" stroke-linecap="round" stroke-linejoin="round"/>
<path d="M152.857 73.8948H154.948" stroke="#263238" stroke-linecap="round" stroke-linejoin="round"/>
<path d="M128.999 73.8948H151.256" stroke="#263238" stroke-linecap="round" stroke-linejoin="round"/>
<path d="M144.503 104.388V130.648" stroke="#263238" stroke-miterlimit="10"/>
<path d="M144.503 132.071C145.289 132.071 145.926 131.434 145.926 130.648C145.926 129.862 145.289 129.225 144.503 129.225C143.717 129.225 143.08 129.862 143.08 130.648C143.08 131.434 143.717 132.071 144.503 132.071Z" fill="#263238" stroke="#263238" stroke-linecap="round" stroke-linejoin="round"/>
<path d="M160.481 79.0051C164.002 79.0051 166.856 76.1509 166.856 72.6301C166.856 69.1093 164.002 66.2551 160.481 66.2551C156.961 66.2551 154.106 69.1093 154.106 72.6301C154.106 76.1509 156.961 79.0051 160.481 79.0051Z" fill="#FDB7A4"/>
<path d="M160.482 79.77C159.069 79.77 157.689 79.3512 156.515 78.5667C155.341 77.7821 154.425 76.667 153.885 75.3624C153.345 74.0577 153.203 72.6221 153.479 71.237C153.754 69.852 154.434 68.5798 155.433 67.5813C156.431 66.5827 157.704 65.9027 159.089 65.6272C160.474 65.3517 161.909 65.4931 163.214 66.0335C164.519 66.5739 165.634 67.4891 166.418 68.6632C167.203 69.8374 167.622 71.2178 167.622 72.63C167.622 74.5236 166.869 76.3397 165.53 77.6787C164.191 79.0178 162.375 79.77 160.482 79.77ZM160.482 67.02C159.372 67.02 158.287 67.349 157.365 67.9654C156.442 68.5819 155.723 69.458 155.299 70.4831C154.874 71.5082 154.763 72.6362 154.979 73.7245C155.196 74.8127 155.73 75.8123 156.515 76.5969C157.299 77.3814 158.299 77.9157 159.387 78.1322C160.475 78.3487 161.603 78.2376 162.628 77.813C163.654 77.3884 164.53 76.6693 165.146 75.7467C165.763 74.8242 166.092 73.7395 166.092 72.63C166.092 71.1421 165.501 69.7152 164.448 68.6631C163.396 67.611 161.969 67.02 160.482 67.02Z" fill="#263238"/>
<path d="M160.9 74.9555H160.844C160.721 74.9479 160.602 74.9105 160.497 74.8465C160.392 74.7825 160.305 74.6939 160.242 74.5884L157.784 70.4726C157.726 70.3865 157.686 70.2895 157.667 70.1875C157.648 70.0855 157.65 69.9807 157.672 69.8795C157.695 69.7782 157.738 69.6826 157.799 69.5985C157.859 69.5144 157.937 69.4435 158.026 69.3902C158.115 69.3369 158.214 69.3022 158.316 69.2883C158.419 69.2744 158.524 69.2816 158.624 69.3094C158.724 69.3371 158.817 69.385 158.898 69.4499C158.979 69.5149 159.046 69.5956 159.094 69.6872L160.991 72.8543L166.26 66.2855C166.387 66.1273 166.572 66.026 166.773 66.004C166.975 65.982 167.178 66.0411 167.336 66.1682C167.494 66.2954 167.595 66.4802 167.617 66.682C167.639 66.8838 167.58 67.0861 167.453 67.2443L161.496 74.6699C161.424 74.7584 161.333 74.8298 161.23 74.8791C161.127 74.9285 161.014 74.9546 160.9 74.9555Z" fill="white"/>
<path d="M84.1501 139.047C84.1501 139.047 88.0567 137.93 88.6942 137.609C89.3317 137.288 92.4376 133.942 92.4376 133.468C92.4376 132.994 91.3207 133.228 90.4486 133.702C89.5765 134.177 86.8786 137.13 86.8786 137.13L84.1501 139.047Z" fill="white" stroke="#263238" stroke-linecap="round" stroke-linejoin="round"/>
<path d="M81.6768 140.001C81.6768 140.001 86.8584 137.691 87.4194 137.293C87.9804 136.895 90.2856 134.503 90.4488 133.723C90.612 132.943 88.8525 133.167 88.3731 133.407C87.8937 133.647 85.0275 136.513 84.7062 136.834C84.3849 137.155 81.1362 139.863 81.1362 139.863C81.1362 139.863 80.0703 140.399 81.6768 140.001Z" fill="white" stroke="#263238" stroke-linecap="round" stroke-linejoin="round"/>
<path d="M62.9493 141.225C62.9493 141.225 68.0493 135.921 69.0132 135.35C69.9771 134.779 81.3297 134.784 81.3297 134.784C81.3297 134.784 86.8224 133.254 87.771 133.075C88.7196 132.897 88.5309 134.784 87.2049 135.544C85.8789 136.304 81.8958 139.899 80.3811 140.848C78.8664 141.796 69.2019 143.122 69.2019 143.122L64.464 148.804L59.5374 145.774L62.9493 141.225Z" fill="white" stroke="#263238" stroke-linecap="round" stroke-linejoin="round"/>
<path d="M81.33 134.784C81.33 134.784 83.7525 134.503 83.5128 135.217C83.2731 135.931 82.3959 137.451 80.7231 137.533L73.8687 137.849" fill="white"/>
<path d="M81.33 134.784C81.33 134.784 83.7525 134.503 83.5128 135.217C83.2731 135.931 82.3959 137.451 80.7231 137.533L73.8687 137.849" stroke="#263238" stroke-linecap="round" stroke-linejoin="round"/>
<path d="M59.5375 145.774C59.5375 145.774 55.2484 145.443 54.4018 145.953C53.5552 146.463 42.8401 158.535 42.8401 158.535L46.7059 177.099C46.5325 177.848 64.1326 159.468 66.6418 153.945C67.723 151.558 65.1118 148.671 65.1118 148.671L59.5375 145.774Z" fill="#FDB7A4" stroke="#263238" stroke-linecap="round" stroke-linejoin="round"/>
<path d="M60.8175 140.909L69.3345 146.835L65.7237 151.15L57.5535 145.596L60.8175 140.909Z" fill="#FDB7A4" stroke="#263238" stroke-linecap="round" stroke-linejoin="round"/>
<path d="M102.455 110.936L57.6294 113.152L58.7247 135.31L103.55 133.094L102.455 110.936Z" fill="white" stroke="#263238" stroke-linecap="round" stroke-linejoin="round"/>
<path d="M67.7127 113.928L58.9768 114.358L59.1966 118.82L67.9325 118.39L67.7127 113.928Z" fill="#FDB7A4" stroke="#263238" stroke-linecap="round" stroke-linejoin="round"/>
<path d="M102.457 110.933L93.2881 111.386L94.3834 133.544L103.552 133.091L102.457 110.933Z" fill="#DBDBDB" stroke="#263238" stroke-linecap="round" stroke-linejoin="round"/>
<path d="M102.444 110.946C102.444 110.946 106.014 113.42 107.431 115.96" stroke="#263238" stroke-linecap="round" stroke-linejoin="round"/>
<path d="M106.162 114.266L106.024 119.764L110.252 124.839L116.173 119.626L111.945 114.409L106.162 114.266Z" fill="#FDB7A4" stroke="#263238" stroke-linecap="round" stroke-linejoin="round"/>
<path d="M80.5801 101.583V106.428" stroke="#263238" stroke-linecap="round" stroke-linejoin="round"/>
<path d="M80.5801 144.168V149.013" stroke="#263238" stroke-linecap="round" stroke-linejoin="round"/>
<path d="M51.7651 108.978L55.0801 111.528" stroke="#263238" stroke-linecap="round" stroke-linejoin="round"/>
<path d="M55.335 126.063L49.98 126.318" stroke="#263238" stroke-linecap="round" stroke-linejoin="round"/>
<path d="M58.6502 138.813L55.3352 142.128" stroke="#263238" stroke-linecap="round" stroke-linejoin="round"/>
<path d="M105.315 135.243L109.395 139.068" stroke="#263238" stroke-linecap="round" stroke-linejoin="round"/>
<path d="M104.295 108.723L107.61 104.898" stroke="#263238" stroke-linecap="round" stroke-linejoin="round"/>
<path d="M117.417 210.708H66.6521V214.803H117.417V210.708Z" fill="white" stroke="#263238" stroke-miterlimit="10" stroke-linecap="round"/>
<path d="M70.9971 209.331H67.4832V210.646H70.9971V209.331Z" fill="white" stroke="#263238" stroke-miterlimit="10" stroke-linecap="round"/>
<path d="M75.531 209.331H72.0171V210.646H75.531V209.331Z" fill="white" stroke="#263238" stroke-miterlimit="10" stroke-linecap="round"/>
<path d="M80.0698 209.331H76.5559V210.646H80.0698V209.331Z" fill="white" stroke="#263238" stroke-miterlimit="10" stroke-linecap="round"/>
<path d="M84.604 209.331H81.0901V210.646H84.604V209.331Z" fill="white" stroke="#263238" stroke-miterlimit="10" stroke-linecap="round"/>
<path d="M89.1428 209.331H85.6289V210.646H89.1428V209.331Z" fill="white" stroke="#263238" stroke-miterlimit="10" stroke-linecap="round"/>
<path d="M93.6767 209.331H90.1628V210.646H93.6767V209.331Z" fill="white" stroke="#263238" stroke-miterlimit="10" stroke-linecap="round"/>
<path d="M98.2156 209.331H94.7017V210.646H98.2156V209.331Z" fill="white" stroke="#263238" stroke-miterlimit="10" stroke-linecap="round"/>
<path d="M102.75 209.331H99.2358V210.646H102.75V209.331Z" fill="white" stroke="#263238" stroke-miterlimit="10" stroke-linecap="round"/>
<path d="M107.289 209.331H103.775V210.646H107.289V209.331Z" fill="white" stroke="#263238" stroke-miterlimit="10" stroke-linecap="round"/>
<path d="M111.822 209.331H108.309V210.646H111.822V209.331Z" fill="white" stroke="#263238" stroke-miterlimit="10" stroke-linecap="round"/>
<path d="M116.362 209.331H112.848V210.646H116.362V209.331Z" fill="white" stroke="#263238" stroke-miterlimit="10" stroke-linecap="round"/>
<path d="M55.5898 214.803H33.4405C32.7682 214.801 32.1045 214.651 31.4965 214.364C30.8884 214.077 30.3508 213.66 29.9217 213.142C29.4926 212.624 29.1825 212.019 29.0133 211.368C28.844 210.717 28.8198 210.037 28.9423 209.376L38.8363 157.117L41.2486 157.576L31.3546 209.83C31.2959 210.137 31.3058 210.453 31.3836 210.755C31.4614 211.058 31.6051 211.339 31.8045 211.579C32.0039 211.82 32.2539 212.013 32.5368 212.145C32.8197 212.278 33.1283 212.346 33.4405 212.345H55.5898V214.803Z" fill="#263238"/>
<path d="M39.7698 154.347L36.2202 155.439L38.9487 169.902L43.3194 169.086L39.7698 154.347Z" fill="#263238"/>
<path d="M47.9399 199.727L31.4465 116.419L32.7113 117.204C34.106 118.069 35.3085 119.211 36.2445 120.56C37.1804 121.908 37.83 123.434 38.153 125.043L50.8724 189.303C51.2357 191.149 51.1595 193.054 50.6501 194.865C50.1406 196.676 49.2122 198.341 47.9399 199.727Z" fill="white" stroke="#263238" stroke-miterlimit="10" stroke-linecap="round"/>
<path d="M229.837 214.803H236.64" stroke="#263238" stroke-miterlimit="10" stroke-linecap="round"/>
<path d="M11.3118 214.803H224.599" stroke="#263238" stroke-miterlimit="10" stroke-linecap="round"/>
</svg>
