<svg width="712" height="126" viewBox="0 0 712 126" fill="none" xmlns="http://www.w3.org/2000/svg">
<rect y="0.983398" width="712" height="124.51" fill="#00C55F"/>
<path d="M129.456 55.8855V34.4109H138.581C140.876 34.4109 142.541 34.6062 143.577 34.9968C144.622 35.3777 145.456 36.0613 146.081 37.0476C146.706 38.0339 147.019 39.1619 147.019 40.4314C147.019 42.0427 146.545 43.3757 145.598 44.4304C144.651 45.4753 143.235 46.1345 141.35 46.408C142.288 46.9548 143.059 47.5554 143.665 48.2097C144.28 48.864 145.105 50.0261 146.14 51.696L148.762 55.8855H143.577L140.442 51.2126C139.329 49.5427 138.567 48.4929 138.157 48.0632C137.747 47.6238 137.312 47.3259 136.853 47.1697C136.394 47.0037 135.666 46.9207 134.67 46.9207H133.791V55.8855H129.456ZM133.791 43.4929H136.999C139.08 43.4929 140.378 43.405 140.896 43.2292C141.414 43.0535 141.819 42.7507 142.112 42.321C142.405 41.8914 142.551 41.3542 142.551 40.7097C142.551 39.9871 142.356 39.406 141.965 38.9666C141.584 38.5173 141.042 38.2341 140.339 38.1169C139.988 38.0681 138.933 38.0437 137.175 38.0437H133.791V43.4929ZM151.506 55.8855V34.4109H167.428V38.0437H155.841V42.8044H166.623V46.4226H155.841V52.2673H167.839V55.8855H151.506ZM185.641 47.99L189.845 49.323C189.2 51.6667 188.126 53.4099 186.622 54.5525C185.128 55.6853 183.228 56.2517 180.924 56.2517C178.072 56.2517 175.728 55.28 173.893 53.3367C172.057 51.3835 171.139 48.7175 171.139 45.3386C171.139 41.7644 172.061 38.991 173.907 37.0183C175.753 35.0359 178.18 34.0447 181.187 34.0447C183.814 34.0447 185.948 34.821 187.589 36.3738C188.565 37.2917 189.298 38.6101 189.786 40.3289L185.494 41.3542C185.24 40.241 184.708 39.3621 183.897 38.7175C183.097 38.073 182.12 37.7507 180.968 37.7507C179.376 37.7507 178.082 38.322 177.086 39.4646C176.1 40.6072 175.606 42.4578 175.606 45.0164C175.606 47.7312 176.095 49.6648 177.071 50.8171C178.048 51.9695 179.317 52.5457 180.88 52.5457C182.032 52.5457 183.023 52.1794 183.853 51.447C184.684 50.7146 185.279 49.5623 185.641 47.99ZM193.98 55.8855V34.4109H198.316V42.863H206.812V34.4109H211.148V55.8855H206.812V46.4958H198.316V55.8855H193.98ZM216.03 55.8855V34.4109H231.953V38.0437H220.366V42.8044H231.147V46.4226H220.366V52.2673H232.363V55.8855H216.03ZM236.439 55.8855V34.4109H245.565C247.86 34.4109 249.525 34.6062 250.56 34.9968C251.605 35.3777 252.44 36.0613 253.065 37.0476C253.69 38.0339 254.003 39.1619 254.003 40.4314C254.003 42.0427 253.529 43.3757 252.582 44.4304C251.634 45.4753 250.218 46.1345 248.334 46.408C249.271 46.9548 250.043 47.5554 250.648 48.2097C251.263 48.864 252.089 50.0261 253.124 51.696L255.746 55.8855H250.56L247.425 51.2126C246.312 49.5427 245.55 48.4929 245.14 48.0632C244.73 47.6238 244.296 47.3259 243.837 47.1697C243.378 47.0037 242.65 46.9207 241.654 46.9207H240.775V55.8855H236.439ZM240.775 43.4929H243.983C246.063 43.4929 247.362 43.405 247.88 43.2292C248.397 43.0535 248.802 42.7507 249.095 42.321C249.388 41.8914 249.535 41.3542 249.535 40.7097C249.535 39.9871 249.34 39.406 248.949 38.9666C248.568 38.5173 248.026 38.2341 247.323 38.1169C246.971 38.0681 245.917 38.0437 244.159 38.0437H240.775V43.4929ZM272.229 47.99L276.433 49.323C275.789 51.6667 274.715 53.4099 273.211 54.5525C271.717 55.6853 269.817 56.2517 267.513 56.2517C264.661 56.2517 262.317 55.28 260.481 53.3367C258.645 51.3835 257.727 48.7175 257.727 45.3386C257.727 41.7644 258.65 38.991 260.496 37.0183C262.342 35.0359 264.768 34.0447 267.776 34.0447C270.403 34.0447 272.537 34.821 274.178 36.3738C275.154 37.2917 275.887 38.6101 276.375 40.3289L272.083 41.3542C271.829 40.241 271.297 39.3621 270.486 38.7175C269.685 38.073 268.709 37.7507 267.557 37.7507C265.965 37.7507 264.671 38.322 263.675 39.4646C262.688 40.6072 262.195 42.4578 262.195 45.0164C262.195 47.7312 262.683 49.6648 263.66 50.8171C264.637 51.9695 265.906 52.5457 267.469 52.5457C268.621 52.5457 269.612 52.1794 270.442 51.447C271.272 50.7146 271.868 49.5623 272.229 47.99ZM280.568 55.8855V34.4109H284.904V42.863H293.401V34.4109H297.736V55.8855H293.401V46.4958H284.904V55.8855H280.568ZM302.619 55.8855V34.4109H318.541V38.0437H306.954V42.8044H317.736V46.4226H306.954V52.2673H318.952V55.8855H302.619ZM323.028 55.8855V34.4109H332.154C334.449 34.4109 336.114 34.6062 337.149 34.9968C338.194 35.3777 339.029 36.0613 339.654 37.0476C340.279 38.0339 340.591 39.1619 340.591 40.4314C340.591 42.0427 340.118 43.3757 339.171 44.4304C338.223 45.4753 336.807 46.1345 334.922 46.408C335.86 46.9548 336.631 47.5554 337.237 48.2097C337.852 48.864 338.677 50.0261 339.713 51.696L342.335 55.8855H337.149L334.014 51.2126C332.901 49.5427 332.139 48.4929 331.729 48.0632C331.319 47.6238 330.884 47.3259 330.425 47.1697C329.966 47.0037 329.239 46.9207 328.243 46.9207H327.364V55.8855H323.028ZM327.364 43.4929H330.572C332.652 43.4929 333.951 43.405 334.468 43.2292C334.986 43.0535 335.391 42.7507 335.684 42.321C335.977 41.8914 336.124 41.3542 336.124 40.7097C336.124 39.9871 335.928 39.406 335.538 38.9666C335.157 38.5173 334.615 38.2341 333.912 38.1169C333.56 38.0681 332.505 38.0437 330.748 38.0437H327.364V43.4929ZM352.714 48.8982L356.933 48.488C357.187 49.9041 357.699 50.9441 358.471 51.6082C359.252 52.2722 360.302 52.6042 361.62 52.6042C363.017 52.6042 364.066 52.3113 364.77 51.7253C365.483 51.1296 365.839 50.4363 365.839 49.6453C365.839 49.1375 365.688 48.7078 365.385 48.3562C365.092 47.9949 364.574 47.6824 363.832 47.4187C363.324 47.2429 362.167 46.9304 360.36 46.4812C358.036 45.905 356.405 45.197 355.468 44.3572C354.15 43.1755 353.49 41.7351 353.49 40.0359C353.49 38.9421 353.798 37.9216 354.413 36.9744C355.038 36.0173 355.932 35.2898 357.094 34.7917C358.266 34.2937 359.677 34.0447 361.327 34.0447C364.023 34.0447 366.049 34.6355 367.406 35.8171C368.774 36.9988 369.491 38.5759 369.56 40.5486L365.224 40.739C365.038 39.6355 364.638 38.8445 364.023 38.366C363.417 37.8777 362.504 37.6335 361.283 37.6335C360.024 37.6335 359.037 37.8923 358.324 38.4099C357.865 38.7419 357.636 39.1863 357.636 39.7429C357.636 40.2507 357.851 40.6853 358.28 41.0466C358.827 41.5056 360.155 41.9841 362.265 42.4822C364.374 42.9802 365.932 43.4978 366.938 44.0349C367.953 44.5623 368.744 45.2898 369.311 46.2175C369.887 47.1355 370.175 48.2732 370.175 49.6306C370.175 50.8611 369.833 52.0134 369.15 53.0876C368.466 54.1619 367.499 54.9626 366.249 55.49C364.999 56.0076 363.441 56.2664 361.576 56.2664C358.861 56.2664 356.776 55.6414 355.321 54.3914C353.866 53.1316 352.997 51.3005 352.714 48.8982ZM374.178 34.4109H378.514V46.0417C378.514 47.8875 378.568 49.0837 378.675 49.6306C378.861 50.5095 379.3 51.2175 379.993 51.7546C380.697 52.282 381.654 52.5457 382.865 52.5457C384.095 52.5457 385.023 52.2966 385.648 51.7986C386.273 51.2908 386.649 50.6707 386.776 49.9382C386.903 49.2058 386.966 47.99 386.966 46.2908V34.4109H391.302V45.6902C391.302 48.2683 391.185 50.0896 390.951 51.1541C390.716 52.2185 390.282 53.1169 389.647 53.8494C389.022 54.5818 388.182 55.1677 387.127 55.6072C386.073 56.0369 384.696 56.2517 382.996 56.2517C380.946 56.2517 379.388 56.0173 378.324 55.5486C377.269 55.0701 376.434 54.4548 375.819 53.7029C375.203 52.9412 374.798 52.1453 374.603 51.3152C374.32 50.0847 374.178 48.2683 374.178 45.866V34.4109ZM396.287 55.8855V34.4109H405.413C407.708 34.4109 409.373 34.6062 410.408 34.9968C411.453 35.3777 412.288 36.0613 412.913 37.0476C413.538 38.0339 413.85 39.1619 413.85 40.4314C413.85 42.0427 413.377 43.3757 412.429 44.4304C411.482 45.4753 410.066 46.1345 408.181 46.408C409.119 46.9548 409.89 47.5554 410.496 48.2097C411.111 48.864 411.936 50.0261 412.971 51.696L415.593 55.8855H410.408L407.273 51.2126C406.16 49.5427 405.398 48.4929 404.988 48.0632C404.578 47.6238 404.143 47.3259 403.684 47.1697C403.225 47.0037 402.498 46.9207 401.502 46.9207H400.623V55.8855H396.287ZM400.623 43.4929H403.831C405.911 43.4929 407.21 43.405 407.727 43.2292C408.245 43.0535 408.65 42.7507 408.943 42.321C409.236 41.8914 409.382 41.3542 409.382 40.7097C409.382 39.9871 409.187 39.406 408.796 38.9666C408.416 38.5173 407.874 38.2341 407.17 38.1169C406.819 38.0681 405.764 38.0437 404.006 38.0437H400.623V43.4929ZM432.154 55.8855V46.8474L424.288 34.4109H429.371L434.425 42.907L439.376 34.4109H444.371L436.476 46.8767V55.8855H432.154ZM446.031 45.28C446.031 43.0925 446.358 41.2566 447.012 39.7722C447.5 38.6785 448.164 37.697 449.004 36.8279C449.854 35.9587 450.782 35.3142 451.787 34.8943C453.125 34.3279 454.668 34.0447 456.416 34.0447C459.58 34.0447 462.11 35.0261 464.004 36.989C465.909 38.9519 466.861 41.6814 466.861 45.1775C466.861 48.6443 465.918 51.3591 464.034 53.322C462.149 55.2751 459.629 56.2517 456.475 56.2517C453.282 56.2517 450.742 55.28 448.858 53.3367C446.973 51.3835 446.031 48.698 446.031 45.28ZM450.498 45.1335C450.498 47.5652 451.06 49.4109 452.183 50.6707C453.306 51.9207 454.732 52.5457 456.46 52.5457C458.189 52.5457 459.605 51.9255 460.708 50.6853C461.822 49.4353 462.378 47.5652 462.378 45.075C462.378 42.614 461.836 40.7781 460.752 39.5671C459.678 38.3562 458.247 37.7507 456.46 37.7507C454.673 37.7507 453.233 38.366 452.139 39.5964C451.045 40.8171 450.498 42.6628 450.498 45.1335ZM469.765 45.28C469.765 43.0925 470.092 41.2566 470.747 39.7722C471.235 38.6785 471.899 37.697 472.739 36.8279C473.588 35.9587 474.516 35.3142 475.522 34.8943C476.86 34.3279 478.403 34.0447 480.151 34.0447C483.315 34.0447 485.844 35.0261 487.739 36.989C489.643 38.9519 490.595 41.6814 490.595 45.1775C490.595 48.6443 489.653 51.3591 487.768 53.322C485.883 55.2751 483.364 56.2517 480.21 56.2517C477.016 56.2517 474.477 55.28 472.592 53.3367C470.708 51.3835 469.765 48.698 469.765 45.28ZM474.233 45.1335C474.233 47.5652 474.794 49.4109 475.918 50.6707C477.041 51.9207 478.466 52.5457 480.195 52.5457C481.923 52.5457 483.339 51.9255 484.443 50.6853C485.556 49.4353 486.113 47.5652 486.113 45.075C486.113 42.614 485.571 40.7781 484.487 39.5671C483.413 38.3562 481.982 37.7507 480.195 37.7507C478.408 37.7507 476.967 38.366 475.874 39.5964C474.78 40.8171 474.233 42.6628 474.233 45.1335ZM494.379 55.8855V34.4109H501.337C503.973 34.4109 505.692 34.5183 506.493 34.7332C507.723 35.0554 508.754 35.7585 509.584 36.8425C510.414 37.9167 510.829 39.3083 510.829 41.0173C510.829 42.3357 510.59 43.4441 510.111 44.3425C509.633 45.241 509.022 45.949 508.28 46.4666C507.548 46.9744 506.801 47.3113 506.039 47.4773C505.004 47.6824 503.505 47.7849 501.542 47.7849H498.715V55.8855H494.379ZM498.715 38.0437V44.1375H501.088C502.797 44.1375 503.939 44.0251 504.515 43.8005C505.092 43.5759 505.541 43.2244 505.863 42.7458C506.195 42.2673 506.361 41.7107 506.361 41.0759C506.361 40.2947 506.132 39.6501 505.673 39.1423C505.214 38.6345 504.633 38.3171 503.929 38.1902C503.412 38.0925 502.372 38.0437 500.809 38.0437H498.715ZM514.642 55.8855V34.4109H518.978V55.8855H514.642ZM537.248 47.99L541.452 49.323C540.808 51.6667 539.734 53.4099 538.23 54.5525C536.736 55.6853 534.836 56.2517 532.531 56.2517C529.68 56.2517 527.336 55.28 525.5 53.3367C523.664 51.3835 522.746 48.7175 522.746 45.3386C522.746 41.7644 523.669 38.991 525.515 37.0183C527.361 35.0359 529.787 34.0447 532.795 34.0447C535.422 34.0447 537.556 34.821 539.197 36.3738C540.173 37.2917 540.906 38.6101 541.394 40.3289L537.102 41.3542C536.848 40.241 536.316 39.3621 535.505 38.7175C534.704 38.073 533.728 37.7507 532.575 37.7507C530.984 37.7507 529.69 38.322 528.694 39.4646C527.707 40.6072 527.214 42.4578 527.214 45.0164C527.214 47.7312 527.702 49.6648 528.679 50.8171C529.656 51.9695 530.925 52.5457 532.488 52.5457C533.64 52.5457 534.631 52.1794 535.461 51.447C536.291 50.7146 536.887 49.5623 537.248 47.99ZM545.631 55.8855V34.4109H549.967V43.947L558.727 34.4109H564.557L556.471 42.7751L564.997 55.8855H559.386L553.483 45.8074L549.967 49.3962V55.8855H545.631ZM170.919 91.9246L174.2 92.4753C173.779 93.6785 173.111 94.5964 172.197 95.2292C171.29 95.8542 170.154 96.1667 168.786 96.1667C166.622 96.1667 165.021 95.4597 163.982 94.0457C163.161 92.9128 162.751 91.4832 162.751 89.7566C162.751 87.6941 163.29 86.0808 164.368 84.9167C165.447 83.7449 166.81 83.1589 168.458 83.1589C170.31 83.1589 171.771 83.7722 172.841 84.9988C173.911 86.2175 174.423 88.0886 174.376 90.6121H166.126C166.15 91.5886 166.415 92.3503 166.923 92.8972C167.431 93.4363 168.064 93.7058 168.822 93.7058C169.337 93.7058 169.771 93.5652 170.122 93.2839C170.474 93.0027 170.74 92.5496 170.919 91.9246ZM171.107 88.5964C171.083 87.6433 170.837 86.9207 170.368 86.4285C169.9 85.9285 169.329 85.6785 168.657 85.6785C167.939 85.6785 167.345 85.9402 166.876 86.4636C166.407 86.9871 166.177 87.698 166.185 88.5964H171.107ZM175.875 95.8855L180.363 89.4753L176.062 83.4402H180.082L182.285 86.8621L184.605 83.4402H188.472L184.253 89.3347L188.859 95.8855H184.816L182.285 92.03L179.73 95.8855H175.875ZM191.834 86.7332V83.4402H195.127V86.7332H191.834ZM191.834 95.8855V92.5925H195.127V95.8855H191.834ZM210.065 95.8855L205.049 83.4402H208.506L210.85 89.7917L211.53 91.9128C211.709 91.3738 211.822 91.0183 211.869 90.8464C211.979 90.4949 212.096 90.1433 212.221 89.7917L214.588 83.4402H217.975L213.03 95.8855H210.065ZM227.594 91.9246L230.875 92.4753C230.454 93.6785 229.786 94.5964 228.872 95.2292C227.965 95.8542 226.829 96.1667 225.461 96.1667C223.297 96.1667 221.696 95.4597 220.657 94.0457C219.836 92.9128 219.426 91.4832 219.426 89.7566C219.426 87.6941 219.965 86.0808 221.043 84.9167C222.122 83.7449 223.485 83.1589 225.133 83.1589C226.985 83.1589 228.446 83.7722 229.516 84.9988C230.586 86.2175 231.098 88.0886 231.051 90.6121H222.801C222.825 91.5886 223.09 92.3503 223.598 92.8972C224.106 93.4363 224.739 93.7058 225.497 93.7058C226.012 93.7058 226.446 93.5652 226.797 93.2839C227.149 93.0027 227.415 92.5496 227.594 91.9246ZM227.782 88.5964C227.758 87.6433 227.512 86.9207 227.043 86.4285C226.575 85.9285 226.004 85.6785 225.332 85.6785C224.614 85.6785 224.02 85.9402 223.551 86.4636C223.082 86.9871 222.852 87.698 222.86 88.5964H227.782ZM223.575 81.9167L225.192 78.4128H228.883L225.661 81.9167H223.575ZM234.132 95.8855V78.7058H237.424V95.8855H234.132ZM240.435 89.4871C240.435 88.3933 240.704 87.3347 241.243 86.3113C241.782 85.2878 242.544 84.5066 243.528 83.9675C244.52 83.4285 245.626 83.1589 246.845 83.1589C248.727 83.1589 250.27 83.7722 251.474 84.9988C252.677 86.2175 253.278 87.7605 253.278 89.6277C253.278 91.5105 252.669 93.073 251.45 94.3152C250.239 95.5496 248.712 96.1667 246.868 96.1667C245.727 96.1667 244.638 95.9089 243.599 95.3933C242.567 94.8777 241.782 94.1238 241.243 93.1316C240.704 92.1316 240.435 90.9167 240.435 89.4871ZM243.81 89.6628C243.81 90.8972 244.102 91.8425 244.688 92.4988C245.274 93.155 245.997 93.4832 246.856 93.4832C247.716 93.4832 248.435 93.155 249.013 92.4988C249.599 91.8425 249.892 90.8894 249.892 89.6394C249.892 88.4207 249.599 87.4832 249.013 86.8269C248.435 86.1707 247.716 85.8425 246.856 85.8425C245.997 85.8425 245.274 86.1707 244.688 86.8269C244.102 87.4832 243.81 88.4285 243.81 89.6628ZM256.171 92.5925H259.464V94.948C259.464 95.9011 259.382 96.6511 259.218 97.198C259.054 97.7527 258.741 98.2488 258.28 98.6863C257.827 99.1238 257.249 99.4675 256.546 99.7175L255.902 98.3582C256.566 98.1394 257.038 97.8386 257.32 97.4558C257.601 97.073 257.749 96.5496 257.765 95.8855H256.171V92.5925ZM276.09 83.4402V86.0652H273.84V91.0808C273.84 92.0964 273.859 92.6902 273.898 92.8621C273.945 93.0261 274.043 93.1628 274.191 93.2722C274.347 93.3816 274.535 93.4363 274.754 93.4363C275.058 93.4363 275.5 93.3308 276.078 93.1199L276.359 95.6746C275.593 96.0027 274.726 96.1667 273.757 96.1667C273.164 96.1667 272.629 96.0691 272.152 95.8738C271.675 95.6707 271.324 95.4128 271.097 95.1003C270.879 94.78 270.726 94.3503 270.64 93.8113C270.57 93.4285 270.535 92.655 270.535 91.491V86.0652H269.023V83.4402H270.535V80.9675L273.84 79.0457V83.4402H276.09ZM285.967 91.9246L289.248 92.4753C288.826 93.6785 288.158 94.5964 287.244 95.2292C286.338 95.8542 285.201 96.1667 283.834 96.1667C281.67 96.1667 280.068 95.4597 279.029 94.0457C278.209 92.9128 277.799 91.4832 277.799 89.7566C277.799 87.6941 278.338 86.0808 279.416 84.9167C280.494 83.7449 281.857 83.1589 283.506 83.1589C285.357 83.1589 286.818 83.7722 287.889 84.9988C288.959 86.2175 289.471 88.0886 289.424 90.6121H281.174C281.197 91.5886 281.463 92.3503 281.971 92.8972C282.478 93.4363 283.111 93.7058 283.869 93.7058C284.385 93.7058 284.818 93.5652 285.17 93.2839C285.521 93.0027 285.787 92.5496 285.967 91.9246ZM286.154 88.5964C286.131 87.6433 285.885 86.9207 285.416 86.4285C284.947 85.9285 284.377 85.6785 283.705 85.6785C282.986 85.6785 282.392 85.9402 281.924 86.4636C281.455 86.9871 281.225 87.698 281.232 88.5964H286.154ZM281.947 81.9167L283.564 78.4128H287.256L284.033 81.9167H281.947ZM292.504 95.8855V78.7058H295.797V95.8855H292.504ZM306.776 91.9246L310.057 92.4753C309.635 93.6785 308.967 94.5964 308.053 95.2292C307.147 95.8542 306.01 96.1667 304.643 96.1667C302.479 96.1667 300.877 95.4597 299.838 94.0457C299.018 92.9128 298.608 91.4832 298.608 89.7566C298.608 87.6941 299.147 86.0808 300.225 84.9167C301.303 83.7449 302.666 83.1589 304.315 83.1589C306.166 83.1589 307.627 83.7722 308.698 84.9988C309.768 86.2175 310.28 88.0886 310.233 90.6121H301.983C302.006 91.5886 302.272 92.3503 302.78 92.8972C303.287 93.4363 303.92 93.7058 304.678 93.7058C305.194 93.7058 305.627 93.5652 305.979 93.2839C306.33 93.0027 306.596 92.5496 306.776 91.9246ZM306.963 88.5964C306.94 87.6433 306.694 86.9207 306.225 86.4285C305.756 85.9285 305.186 85.6785 304.514 85.6785C303.795 85.6785 303.202 85.9402 302.733 86.4636C302.264 86.9871 302.034 87.698 302.041 88.5964H306.963ZM302.756 81.9167L304.373 78.4128H308.065L304.842 81.9167H302.756ZM313.219 83.4402H316.29V85.2683C316.688 84.6433 317.227 84.1355 317.907 83.7449C318.587 83.3542 319.34 83.1589 320.169 83.1589C321.614 83.1589 322.84 83.7253 323.848 84.8582C324.856 85.991 325.36 87.5691 325.36 89.5925C325.36 91.6707 324.852 93.2878 323.837 94.4441C322.821 95.5925 321.59 96.1667 320.145 96.1667C319.458 96.1667 318.833 96.03 318.27 95.7566C317.715 95.4832 317.13 95.0144 316.512 94.3503V100.62H313.219V83.4402ZM316.477 89.4519C316.477 90.8503 316.755 91.8855 317.309 92.5574C317.864 93.2214 318.54 93.5535 319.337 93.5535C320.102 93.5535 320.739 93.2488 321.247 92.6394C321.755 92.0222 322.008 91.0144 322.008 89.616C322.008 88.3113 321.747 87.3425 321.223 86.7097C320.7 86.0769 320.051 85.7605 319.278 85.7605C318.473 85.7605 317.805 86.073 317.274 86.698C316.743 87.3152 316.477 88.2332 316.477 89.4519ZM331.651 78.7058V85.0222C332.714 83.78 333.983 83.1589 335.46 83.1589C336.218 83.1589 336.901 83.2996 337.511 83.5808C338.12 83.8621 338.577 84.2214 338.882 84.6589C339.194 85.0964 339.405 85.5808 339.514 86.1121C339.632 86.6433 339.69 87.4675 339.69 88.5847V95.8855H336.397V89.3113C336.397 88.0066 336.335 87.1785 336.21 86.8269C336.085 86.4753 335.862 86.198 335.542 85.9949C335.229 85.7839 334.835 85.6785 334.358 85.6785C333.811 85.6785 333.323 85.8113 332.893 86.0769C332.464 86.3425 332.147 86.7449 331.944 87.2839C331.749 87.8152 331.651 88.6042 331.651 89.6511V95.8855H328.358V78.7058H331.651ZM342.665 89.4871C342.665 88.3933 342.935 87.3347 343.474 86.3113C344.013 85.2878 344.775 84.5066 345.759 83.9675C346.751 83.4285 347.857 83.1589 349.075 83.1589C350.958 83.1589 352.501 83.7722 353.704 84.9988C354.907 86.2175 355.509 87.7605 355.509 89.6277C355.509 91.5105 354.9 93.073 353.681 94.3152C352.47 95.5496 350.942 96.1667 349.099 96.1667C347.958 96.1667 346.868 95.9089 345.829 95.3933C344.798 94.8777 344.013 94.1238 343.474 93.1316C342.935 92.1316 342.665 90.9167 342.665 89.4871ZM346.04 89.6628C346.04 90.8972 346.333 91.8425 346.919 92.4988C347.505 93.155 348.228 93.4832 349.087 93.4832C349.946 93.4832 350.665 93.155 351.243 92.4988C351.829 91.8425 352.122 90.8894 352.122 89.6394C352.122 88.4207 351.829 87.4832 351.243 86.8269C350.665 86.1707 349.946 85.8425 349.087 85.8425C348.228 85.8425 347.505 86.1707 346.919 86.8269C346.333 87.4832 346.04 88.4285 346.04 89.6628ZM369.804 95.8855H366.511V89.5339C366.511 88.1902 366.441 87.323 366.3 86.9324C366.159 86.5339 365.929 86.2253 365.609 86.0066C365.296 85.7878 364.917 85.6785 364.472 85.6785C363.902 85.6785 363.39 85.8347 362.937 86.1472C362.484 86.4597 362.171 86.8738 361.999 87.3894C361.835 87.905 361.753 88.8582 361.753 90.2488V95.8855H358.46V83.4402H361.519V85.2683C362.605 83.8621 363.972 83.1589 365.62 83.1589C366.347 83.1589 367.011 83.2917 367.613 83.5574C368.214 83.8152 368.667 84.1472 368.972 84.5535C369.284 84.9597 369.499 85.4207 369.617 85.9363C369.742 86.4519 369.804 87.1902 369.804 88.1511V95.8855ZM380.748 91.9246L384.029 92.4753C383.607 93.6785 382.939 94.5964 382.025 95.2292C381.119 95.8542 379.982 96.1667 378.615 96.1667C376.451 96.1667 374.849 95.4597 373.81 94.0457C372.99 92.9128 372.58 91.4832 372.58 89.7566C372.58 87.6941 373.119 86.0808 374.197 84.9167C375.275 83.7449 376.638 83.1589 378.287 83.1589C380.138 83.1589 381.599 83.7722 382.669 84.9988C383.74 86.2175 384.252 88.0886 384.205 90.6121H375.955C375.978 91.5886 376.244 92.3503 376.752 92.8972C377.259 93.4363 377.892 93.7058 378.65 93.7058C379.166 93.7058 379.599 93.5652 379.951 93.2839C380.302 93.0027 380.568 92.5496 380.748 91.9246ZM380.935 88.5964C380.912 87.6433 380.666 86.9207 380.197 86.4285C379.728 85.9285 379.158 85.6785 378.486 85.6785C377.767 85.6785 377.173 85.9402 376.705 86.4636C376.236 86.9871 376.005 87.698 376.013 88.5964H380.935ZM387.203 92.5925H390.496V94.948C390.496 95.9011 390.414 96.6511 390.25 97.198C390.086 97.7527 389.773 98.2488 389.312 98.6863C388.859 99.1238 388.281 99.4675 387.578 99.7175L386.933 98.3582C387.597 98.1394 388.07 97.8386 388.351 97.4558C388.633 97.073 388.781 96.5496 388.797 95.8855H387.203V92.5925ZM407.121 83.4402V86.0652H404.871V91.0808C404.871 92.0964 404.891 92.6902 404.93 92.8621C404.977 93.0261 405.075 93.1628 405.223 93.2722C405.379 93.3816 405.567 93.4363 405.785 93.4363C406.09 93.4363 406.532 93.3308 407.11 93.1199L407.391 95.6746C406.625 96.0027 405.758 96.1667 404.789 96.1667C404.196 96.1667 403.66 96.0691 403.184 95.8738C402.707 95.6707 402.356 95.4128 402.129 95.1003C401.91 94.78 401.758 94.3503 401.672 93.8113C401.602 93.4285 401.567 92.655 401.567 91.491V86.0652H400.055V83.4402H401.567V80.9675L404.871 79.0457V83.4402H407.121ZM409.03 89.4871C409.03 88.3933 409.299 87.3347 409.838 86.3113C410.377 85.2878 411.139 84.5066 412.124 83.9675C413.116 83.4285 414.221 83.1589 415.44 83.1589C417.323 83.1589 418.866 83.7722 420.069 84.9988C421.272 86.2175 421.874 87.7605 421.874 89.6277C421.874 91.5105 421.264 93.073 420.045 94.3152C418.835 95.5496 417.307 96.1667 415.463 96.1667C414.323 96.1667 413.233 95.9089 412.194 95.3933C411.163 94.8777 410.377 94.1238 409.838 93.1316C409.299 92.1316 409.03 90.9167 409.03 89.4871ZM412.405 89.6628C412.405 90.8972 412.698 91.8425 413.284 92.4988C413.87 93.155 414.592 93.4832 415.452 93.4832C416.311 93.4832 417.03 93.155 417.608 92.4988C418.194 91.8425 418.487 90.8894 418.487 89.6394C418.487 88.4207 418.194 87.4832 417.608 86.8269C417.03 86.1707 416.311 85.8425 415.452 85.8425C414.592 85.8425 413.87 86.1707 413.284 86.8269C412.698 87.4832 412.405 88.4285 412.405 89.6628ZM436.169 95.8855H432.876V89.5339C432.876 88.1902 432.805 87.323 432.665 86.9324C432.524 86.5339 432.294 86.2253 431.973 86.0066C431.661 85.7878 431.282 85.6785 430.837 85.6785C430.266 85.6785 429.755 85.8347 429.302 86.1472C428.848 86.4597 428.536 86.8738 428.364 87.3894C428.2 87.905 428.118 88.8582 428.118 90.2488V95.8855H424.825V83.4402H427.884V85.2683C428.97 83.8621 430.337 83.1589 431.985 83.1589C432.712 83.1589 433.376 83.2917 433.977 83.5574C434.579 83.8152 435.032 84.1472 435.337 84.5535C435.649 84.9597 435.864 85.4207 435.981 85.9363C436.106 86.4519 436.169 87.1902 436.169 88.1511V95.8855ZM451.319 95.8855H448.261V94.0574C447.753 94.7683 447.151 95.2996 446.456 95.6511C445.769 95.9949 445.073 96.1667 444.37 96.1667C442.94 96.1667 441.714 95.5925 440.69 94.4441C439.675 93.2878 439.167 91.6785 439.167 89.616C439.167 87.5066 439.663 85.905 440.655 84.8113C441.647 83.7097 442.901 83.1589 444.417 83.1589C445.808 83.1589 447.011 83.7371 448.026 84.8933V78.7058H451.319V95.8855ZM442.53 89.3933C442.53 90.7214 442.714 91.6824 443.081 92.2761C443.612 93.1355 444.354 93.5652 445.308 93.5652C446.065 93.5652 446.71 93.2449 447.241 92.6042C447.772 91.9558 448.038 90.991 448.038 89.7097C448.038 88.28 447.78 87.2527 447.265 86.6277C446.749 85.9949 446.089 85.6785 445.284 85.6785C444.503 85.6785 443.847 85.991 443.315 86.616C442.792 87.2332 442.53 88.1589 442.53 89.3933ZM462.169 91.9246L465.45 92.4753C465.029 93.6785 464.361 94.5964 463.447 95.2292C462.54 95.8542 461.404 96.1667 460.036 96.1667C457.872 96.1667 456.271 95.4597 455.232 94.0457C454.411 92.9128 454.001 91.4832 454.001 89.7566C454.001 87.6941 454.54 86.0808 455.618 84.9167C456.697 83.7449 458.06 83.1589 459.708 83.1589C461.56 83.1589 463.021 83.7722 464.091 84.9988C465.161 86.2175 465.673 88.0886 465.626 90.6121H457.376C457.4 91.5886 457.665 92.3503 458.173 92.8972C458.681 93.4363 459.314 93.7058 460.072 93.7058C460.587 93.7058 461.021 93.5652 461.372 93.2839C461.724 93.0027 461.99 92.5496 462.169 91.9246ZM462.357 88.5964C462.333 87.6433 462.087 86.9207 461.618 86.4285C461.15 85.9285 460.579 85.6785 459.907 85.6785C459.189 85.6785 458.595 85.9402 458.126 86.4636C457.657 86.9871 457.427 87.698 457.435 88.5964H462.357ZM476.898 95.8855V94.0222C476.445 94.6863 475.847 95.2097 475.105 95.5925C474.371 95.9753 473.593 96.1667 472.773 96.1667C471.937 96.1667 471.187 95.9832 470.523 95.616C469.859 95.2488 469.378 94.7332 469.082 94.0691C468.785 93.405 468.636 92.4871 468.636 91.3152V83.4402H471.929V89.1589C471.929 90.9089 471.988 91.9832 472.105 92.3816C472.23 92.7722 472.453 93.0847 472.773 93.3191C473.093 93.5457 473.5 93.6589 473.992 93.6589C474.554 93.6589 475.058 93.5066 475.503 93.2019C475.949 92.8894 476.253 92.5066 476.417 92.0535C476.582 91.5925 476.664 90.4714 476.664 88.6902V83.4402H479.957V95.8855H476.898ZM482.603 92.3347L485.908 91.8308C486.049 92.4714 486.334 92.9597 486.763 93.2957C487.193 93.6238 487.795 93.7878 488.568 93.7878C489.42 93.7878 490.06 93.6316 490.49 93.3191C490.779 93.1003 490.924 92.8074 490.924 92.4402C490.924 92.1902 490.845 91.9832 490.689 91.8191C490.525 91.6628 490.158 91.5183 489.588 91.3855C486.931 90.7996 485.248 90.2644 484.537 89.78C483.552 89.1082 483.06 88.1746 483.06 86.9792C483.06 85.9011 483.486 84.9949 484.338 84.2605C485.189 83.5261 486.509 83.1589 488.299 83.1589C490.002 83.1589 491.267 83.4363 492.095 83.991C492.924 84.5457 493.494 85.366 493.806 86.4519L490.701 87.0261C490.568 86.5417 490.314 86.1707 489.939 85.9128C489.572 85.655 489.045 85.5261 488.357 85.5261C487.49 85.5261 486.869 85.6472 486.494 85.8894C486.244 86.0613 486.119 86.2839 486.119 86.5574C486.119 86.7917 486.228 86.991 486.447 87.155C486.744 87.3738 487.767 87.6824 489.517 88.0808C491.275 88.4792 492.502 88.9675 493.197 89.5457C493.884 90.1316 494.228 90.948 494.228 91.9949C494.228 93.1355 493.752 94.116 492.799 94.9363C491.845 95.7566 490.435 96.1667 488.568 96.1667C486.873 96.1667 485.529 95.823 484.537 95.1355C483.552 94.448 482.908 93.5144 482.603 92.3347ZM504.715 91.9246L507.996 92.4753C507.574 93.6785 506.906 94.5964 505.992 95.2292C505.086 95.8542 503.949 96.1667 502.582 96.1667C500.418 96.1667 498.816 95.4597 497.777 94.0457C496.957 92.9128 496.547 91.4832 496.547 89.7566C496.547 87.6941 497.086 86.0808 498.164 84.9167C499.242 83.7449 500.605 83.1589 502.254 83.1589C504.105 83.1589 505.566 83.7722 506.637 84.9988C507.707 86.2175 508.219 88.0886 508.172 90.6121H499.922C499.945 91.5886 500.211 92.3503 500.719 92.8972C501.227 93.4363 501.859 93.7058 502.617 93.7058C503.133 93.7058 503.566 93.5652 503.918 93.2839C504.27 93.0027 504.535 92.5496 504.715 91.9246ZM504.902 88.5964C504.879 87.6433 504.633 86.9207 504.164 86.4285C503.695 85.9285 503.125 85.6785 502.453 85.6785C501.734 85.6785 501.141 85.9402 500.672 86.4636C500.203 86.9871 499.973 87.698 499.98 88.5964H504.902ZM511.252 95.8855V92.5925H514.545V95.8855H511.252ZM518.317 95.8855V92.5925H521.61V95.8855H518.317ZM525.382 95.8855V92.5925H528.674V95.8855H525.382Z" fill="white"/>
<path d="M648.161 70.0136H646.129L645.408 69.3217C647.93 66.4001 649.448 62.6071 649.448 58.481C649.448 49.2805 641.961 41.8228 632.724 41.8228C623.487 41.8228 616 49.2805 616 58.481C616 67.6815 623.487 75.1392 632.724 75.1392C636.866 75.1392 640.674 73.6272 643.607 71.1156L644.302 71.8332V73.8578L657.166 86.6462L661 82.8277L648.161 70.0136ZM632.724 70.0136C626.317 70.0136 621.146 64.8624 621.146 58.481C621.146 52.0996 626.317 46.9484 632.724 46.9484C639.13 46.9484 644.302 52.0996 644.302 58.481C644.302 64.8624 639.13 70.0136 632.724 70.0136Z" fill="white"/>
</svg>
