<svg width="269" height="270" viewBox="0 0 269 270" fill="none" xmlns="http://www.w3.org/2000/svg">
<path d="M52.8153 168.826C77.6924 197.34 102.812 200.95 138.121 207.707C173.43 214.464 199.356 209.794 218.46 192.573C240.518 172.667 239.647 127.066 205.892 110.829C195.348 105.745 182.791 104.207 173.553 97.0566C155.912 83.4129 141.644 62.1834 113.324 58.1969C85.0038 54.2103 65.9102 73.2071 65.9102 73.2071C42.6525 98.676 27.9382 140.29 52.8153 168.826Z" fill="#DCD4EF"/>
<path opacity="0.7" d="M52.8153 168.826C77.6924 197.34 102.812 200.95 138.121 207.707C173.43 214.464 199.356 209.794 218.46 192.573C240.518 172.667 239.647 127.066 205.892 110.829C195.348 105.745 182.791 104.207 173.553 97.0566C155.912 83.4129 141.644 62.1834 113.324 58.1969C85.0038 54.2103 65.9102 73.2071 65.9102 73.2071C42.6525 98.676 27.9382 140.29 52.8153 168.826Z" fill="white"/>
<path d="M242.611 214.421H32.791V223.029H242.611V214.421Z" fill="#DCD4EF"/>
<path opacity="0.5" d="M242.611 214.421H32.791V223.029H242.611V214.421Z" fill="white"/>
<path d="M82.2709 121.837C81.2446 122.172 80.2371 122.561 79.2527 123.004C79.7907 122.611 80.3287 122.203 80.8667 121.788C83.262 119.862 85.5417 117.796 87.6939 115.601C85.1684 118.055 82.4716 120.325 79.6239 122.396C80.0165 121.714 80.3616 121.006 80.6569 120.277C81.1949 118.937 81.2917 117.587 80.0167 116.871C78.4403 115.989 76.5358 117.307 77.0361 119.561C77.3415 120.819 77.9366 121.989 78.7739 122.977C76.9155 124.264 74.9745 125.427 72.9635 126.458L72.7752 126.555C73.2003 125.819 73.576 125.055 73.8996 124.268C74.4053 122.934 74.5345 121.578 73.254 120.868C71.6777 119.981 69.7731 121.304 70.2789 123.558C70.5791 124.8 71.1608 125.956 71.9789 126.937C69.5633 128.126 67.067 129.137 64.5814 130.235L64.221 130.396C64.7061 129.875 65.1572 129.324 65.5714 128.745C66.3784 127.561 66.8141 126.281 65.7381 125.285C64.4147 124.059 62.2465 124.898 62.2142 127.222C62.2157 128.505 62.514 129.77 63.0858 130.918C60.7599 132.005 58.55 133.324 56.4899 134.856L56.4254 134.91C56.704 134.468 56.959 134.012 57.1893 133.544C57.7973 132.247 58.0232 130.913 56.7966 130.1C56.5473 129.929 56.2625 129.816 55.9634 129.771C55.6643 129.725 55.3588 129.748 55.0699 129.838C54.781 129.927 54.5161 130.081 54.2952 130.288C54.0743 130.495 53.9031 130.749 53.7945 131.031C53.6328 130.779 53.4134 130.569 53.1543 130.418C51.9223 129.708 50.7118 130.477 49.6735 131.564C49.4045 131.849 49.1355 132.156 48.9041 132.457C49.7051 130.234 50.7119 128.09 51.9115 126.055C53.0539 126.554 54.2857 126.815 55.5323 126.824C57.9856 126.824 59.0185 124.78 57.8134 123.51C56.8342 122.482 55.457 122.875 54.155 123.628C53.7263 123.878 53.3114 124.151 52.9122 124.446C54.1594 122.568 55.5748 120.806 57.1409 119.184C58.1671 120.014 59.3597 120.614 60.6379 120.944C63.0212 121.53 64.5169 119.803 63.6561 118.281C62.9567 117.043 61.5041 117.092 60.0784 117.506C59.396 117.71 58.7275 117.958 58.077 118.248C58.728 117.613 59.4005 117.005 60.0838 116.403C60.9768 115.639 61.9022 114.902 62.8437 114.181C63.856 114.989 65.0275 115.574 66.2815 115.897C68.6649 116.484 70.1605 114.757 69.2997 113.234C68.6003 111.997 67.1477 112.045 65.7166 112.459C65.3831 112.556 65.0441 112.675 64.7159 112.798C65.9587 111.911 67.2176 111.044 68.4819 110.184L69.6494 109.382C70.7014 110.263 71.9364 110.899 73.2648 111.243C75.6481 111.83 77.1491 110.103 76.2883 108.58C75.5835 107.343 74.1363 107.391 72.7052 107.806C72.1421 107.978 71.588 108.177 71.0428 108.403L71.7637 107.865C72.2049 107.547 72.6461 107.225 73.0765 106.886C73.6145 106.482 74.1256 106.036 74.6474 105.605C74.9487 105.369 75.2338 105.116 75.519 104.857C76.5752 105.748 77.8182 106.39 79.1559 106.735C81.5392 107.321 83.0349 105.594 82.174 104.072C81.4747 102.835 80.022 102.883 78.5963 103.297C77.7968 103.544 77.0134 103.841 76.2507 104.185C77.2244 103.281 78.1659 102.34 79.059 101.36C79.1182 101.29 79.172 101.221 79.2366 101.156C79.6185 100.731 79.9951 100.301 80.361 99.854C80.7268 99.4075 81.2003 98.8211 81.5984 98.2831C83.2333 96.1372 84.579 93.7857 85.6011 91.2891C84.53 93.756 83.139 96.0713 81.4639 98.1755C79.8071 100.288 77.9574 102.243 75.9386 104.013L75.7181 104.201C76.1766 103.42 76.5828 102.61 76.9339 101.775C77.445 100.44 77.5688 99.0847 76.2883 98.3745C74.7174 97.4868 72.8075 98.8103 73.3132 101.065C73.638 102.399 74.2866 103.634 75.2016 104.658L74.7281 105.067L74.1901 105.53C73.8781 105.783 73.5553 106.025 73.2325 106.267C73.0603 106.396 72.8935 106.531 72.6945 106.66C72.2372 106.999 71.7745 107.327 71.3064 107.65L70.6339 108.107L69.87 108.645C70.3165 107.883 70.7085 107.09 71.0428 106.272C71.5539 104.933 71.6777 103.582 70.4026 102.872C68.8263 101.985 66.9164 103.308 67.4221 105.562C67.734 106.857 68.352 108.058 69.2244 109.065L68.6864 109.43L66.5936 110.802L66.1793 111.071L65.0118 111.851L64.5061 112.19C63.9681 112.562 63.4301 112.938 62.8921 113.326C63.3244 112.551 63.7019 111.748 64.0219 110.921C64.5599 109.586 64.6568 108.231 63.3817 107.521C61.8054 106.633 59.9008 107.956 60.4066 110.211C60.7226 111.523 61.3542 112.738 62.2465 113.751C61.3319 114.423 60.4281 115.112 59.5565 115.833C58.9163 116.371 58.2868 116.909 57.6681 117.49C57.9377 116.991 58.1784 116.477 58.3891 115.951C58.8948 114.611 59.0239 113.261 57.7435 112.551C56.1671 111.663 54.2626 112.987 54.7683 115.241C55.0686 116.482 55.6503 117.638 56.4684 118.619C54.7259 120.351 53.1565 122.248 51.7824 124.285C51.9384 123.697 52.057 123.101 52.1375 122.498C52.3097 121.078 52.1052 119.744 50.6903 119.357C48.9472 118.878 47.4192 120.621 48.4576 122.698C49.0549 123.841 49.9094 124.83 50.9539 125.587C49.5987 127.8 48.4669 130.143 47.5753 132.581C47.552 132.071 47.5017 131.563 47.4246 131.058C47.1825 129.643 46.6122 128.422 45.1435 128.449C43.3358 128.486 42.362 130.601 43.9491 132.29C44.7956 133.173 45.8286 133.854 46.9727 134.286C46.3608 136.168 45.8632 138.085 45.4824 140.026C45.4179 140.333 45.3695 140.64 45.3103 140.946C45.2457 141.006 45.1812 141.065 45.122 141.129C45.0574 140.866 44.9821 140.591 44.896 140.339C44.4441 138.983 43.6909 137.858 42.2437 138.117C40.4683 138.429 39.8281 140.656 41.6573 142.092C42.5869 142.802 43.6585 143.303 44.7992 143.561C44.7992 143.615 44.8422 143.663 44.8691 143.717C44.6701 145.175 44.5194 146.644 44.428 148.118C44.358 149.194 44.3204 150.318 44.2988 151.421C42.7602 151.421 41.6734 153.111 42.7333 154.94C43.1805 155.698 43.7536 156.375 44.428 156.941C44.5571 159.013 44.7615 161.084 45.0359 163.139C44.8183 162.938 44.5521 162.797 44.2634 162.73C43.9747 162.663 43.6736 162.672 43.3896 162.757C42.4212 163.021 41.9854 163.801 41.8294 164.758C41.4848 165.115 41.292 165.591 41.2914 166.087C40.5705 165.011 39.8872 163.935 39.2255 162.8C40.2357 162.026 41.0731 161.049 41.6842 159.932C42.8409 157.78 41.5335 155.892 39.8496 156.349C38.4723 156.726 38.171 158.125 38.2356 159.626C38.2571 160.195 38.311 160.763 38.397 161.326L37.6868 160.078C37.095 159.002 36.6108 157.926 36.0298 156.85C35.8899 156.586 35.7662 156.312 35.6532 156.043C36.7866 155.472 37.7888 154.671 38.596 153.692C40.1401 151.787 39.2094 149.694 37.4662 149.829C36.0459 149.942 35.481 151.26 35.2443 152.745C35.1521 153.392 35.0946 154.044 35.0721 154.698L34.5664 153.53C33.4893 150.882 32.6029 148.16 31.9141 145.385C33.197 144.93 34.3623 144.195 35.325 143.233C37.052 141.484 36.3364 139.316 34.5879 139.273C33.1676 139.241 32.4736 140.495 32.0862 141.963C31.8964 142.743 31.7545 143.533 31.6612 144.33C31.2846 142.738 30.9618 141.124 30.6928 139.488C30.5099 138.488 30.3915 137.471 30.2678 136.46C31.6468 136.186 32.9456 135.603 34.0661 134.754C36.0029 133.248 35.5779 130.988 33.8455 130.735C32.4413 130.515 31.5913 131.671 31.021 133.065C30.6871 133.944 30.4068 134.842 30.1817 135.755C30.0741 134.582 29.9504 133.404 29.8966 132.225C29.7352 129.793 29.7352 127.352 29.8966 124.919C29.651 127.35 29.5665 129.794 29.6437 132.236C29.6437 133.361 29.7406 134.48 29.8105 135.604C29.5032 134.84 29.1436 134.097 28.7345 133.382C28.0028 132.15 27.0237 131.23 25.6679 131.768C23.9947 132.457 23.8495 134.77 25.9477 135.782C27.1783 136.347 28.5282 136.604 29.8804 136.529C29.9773 137.536 30.0634 138.536 30.214 139.532C30.4238 141.146 30.6928 142.695 31.0102 144.261C30.666 143.661 30.2832 143.084 29.8643 142.534C28.9766 141.409 27.8898 140.613 26.6363 141.339C25.0707 142.238 25.2214 144.567 27.4325 145.283C28.6838 145.672 30.009 145.76 31.3008 145.541C31.9146 148.346 32.7217 151.106 33.7164 153.799L34.0338 154.606C33.7492 154.229 33.4419 153.87 33.1138 153.53C32.1185 152.497 30.9618 151.814 29.7621 152.669C28.2933 153.745 28.6861 156.005 30.9457 156.511C32.1927 156.763 33.4811 156.726 34.7117 156.403C34.8247 156.678 34.9376 156.941 35.0721 157.221C35.6101 158.329 36.089 159.464 36.6539 160.551L37.1219 161.493C36.8422 161.251 36.5516 161.019 36.2504 160.804C35.0775 159.981 33.8078 159.529 32.7964 160.589C31.5482 161.896 32.3552 164.07 34.6794 164.14C35.8894 164.168 37.0907 163.929 38.1979 163.44C38.865 164.645 39.5483 165.834 40.2907 167.002C40.5651 167.448 40.8287 167.889 41.1408 168.331C40.7187 167.945 40.2731 167.585 39.8065 167.255C38.6337 166.432 37.364 165.98 36.3472 167.039C35.1044 168.347 35.9114 170.52 38.2356 170.59C39.564 170.606 40.877 170.306 42.0661 169.713C42.4535 170.251 42.8516 170.789 43.2605 171.327C42.3943 172.333 42.6795 174.017 44.4387 174.787C45.2932 175.143 46.2039 175.345 47.1287 175.384C47.2363 175.47 47.3439 175.556 47.4623 175.637L47.5161 175.68C48.628 179.833 49.9461 183.925 51.4704 187.957C52.116 189.673 52.81 191.373 53.5255 193.063H47.0695V218.521H66.798V193.041H56.2962C55.3978 191.077 54.5316 189.092 53.7246 187.085C52.4065 183.793 51.2121 180.446 50.1738 177.052C50.3505 177.104 50.5302 177.145 50.7118 177.175C50.9508 177.224 51.1958 177.235 51.4381 177.208L51.1583 175.438H50.97C50.8578 175.422 50.7465 175.4 50.6365 175.373C50.388 175.302 50.1452 175.212 49.9102 175.104L49.6304 174.975C50.6687 174.613 51.633 174.066 52.4764 173.361C54.3433 171.747 53.8161 169.541 52.0729 169.353C50.6634 169.197 49.8671 170.391 49.3829 171.806C49.2377 172.21 49.1193 172.629 49.0171 173.038C48.9149 172.662 48.8127 172.285 48.7158 171.908C48.4307 170.795 48.1778 169.67 47.9196 168.546C49.0464 168.194 50.0936 167.626 51.0023 166.873C52.8692 165.259 52.3366 163.058 50.5988 162.87C49.1839 162.714 48.393 163.908 47.9088 165.323C47.7636 165.732 47.6398 166.157 47.5322 166.577C47.3708 165.759 47.2148 164.936 47.0695 164.113C46.9673 163.505 46.8705 162.891 46.779 162.278C46.7467 161.407 46.7306 160.535 46.7414 159.658C46.7414 159.179 46.7414 158.7 46.7844 158.222C47.8392 158.555 48.9455 158.695 50.0501 158.636C52.5033 158.475 53.4072 156.376 52.1267 155.187C51.083 154.214 49.7326 154.698 48.4791 155.526C47.917 155.908 47.378 156.323 46.8651 156.769C47.0162 154.721 47.3274 152.689 47.7958 150.69C48.0704 149.512 48.4135 148.352 48.8234 147.214C49.9483 147.602 51.1377 147.768 52.3258 147.704C54.7791 147.548 55.6829 145.45 54.4025 144.255C53.3641 143.287 52.0084 143.766 50.7548 144.599C50.3173 144.9 49.897 145.225 49.4959 145.573C49.969 144.46 50.5191 143.382 51.1422 142.345C52.3779 140.254 53.9275 138.365 55.7367 136.745C56.6743 137.61 57.7833 138.268 58.9916 138.676C61.3265 139.44 62.9459 137.826 62.2196 136.244C61.6117 134.959 60.1806 134.899 58.7065 135.206C58.1384 135.327 57.5779 135.482 57.0279 135.669L57.0656 135.636C59.0731 134.07 61.2365 132.714 63.5216 131.591C64.3278 132.646 65.3516 133.516 66.5236 134.141C68.7079 135.265 70.564 133.931 70.0798 132.252C69.6871 130.886 68.2829 130.601 66.7819 130.638C66.1923 130.67 65.605 130.735 65.0226 130.832C67.449 129.686 69.9238 128.605 72.3125 127.34H72.3663C73.4357 128.264 74.7045 128.927 76.0731 129.277C78.4565 129.869 79.9521 128.137 79.0913 126.587C78.3919 125.35 76.9393 125.404 75.5136 125.813C75.1101 125.931 74.7066 126.076 74.3139 126.227C75.9091 125.3 77.4552 124.29 78.946 123.203L79.0698 123.338V123.268C80.1499 124.199 81.4289 124.871 82.8089 125.231C85.1868 125.818 86.6879 124.091 85.8271 122.541C85.1492 121.374 83.7181 121.422 82.2709 121.837ZM44.6539 170.585C44.1643 170.015 43.7017 169.417 43.2497 168.815C43.3573 168.718 43.4757 168.61 43.5941 168.492C44.2664 168.702 44.9622 168.826 45.6654 168.863V168.976L45.9935 168.906C46.1657 169.756 46.3432 170.601 46.5315 171.446C46.3129 171.16 46.0274 170.931 45.7 170.781C45.3726 170.631 45.0134 170.564 44.6539 170.585ZM46.4078 150.329C46.241 150.964 46.1011 151.599 45.9666 152.239L45.8859 152.126C45.8859 150.813 45.9057 149.504 45.9451 148.199C45.9828 147.284 46.0473 146.375 46.128 145.46C46.5707 145.911 47.0573 146.317 47.5806 146.671C47.1253 147.868 46.7356 149.089 46.4132 150.329H46.4078ZM48.6136 144.304C48.6459 144.067 48.6728 143.825 48.6835 143.588V143.228C48.8772 143.168 49.0763 143.098 49.27 143.018C49.0548 143.443 48.8288 143.873 48.619 144.304H48.6136ZM51.4166 139.757C51.3236 139.545 51.1884 139.353 51.0192 139.194C50.85 139.035 50.6502 138.912 50.432 138.832C49.1032 138.294 48.0272 139.263 47.1718 140.5L47.1287 140.559H47.0426C46.9524 140.539 46.8606 140.526 46.7683 140.521C46.7619 140.446 46.7749 140.37 46.8059 140.301C47.1465 138.357 47.6065 136.437 48.1832 134.55C49.4182 134.706 50.6723 134.609 51.8685 134.265C52.6076 134.07 53.2504 133.613 53.6762 132.979C53.913 134.063 54.3648 135.09 55.005 135.997C53.6815 137.123 52.4805 138.385 51.422 139.763L51.4166 139.757Z" fill="#DCD4EF"/>
<path opacity="0.3" d="M82.2709 121.837C81.2446 122.172 80.2371 122.561 79.2527 123.004C79.7907 122.611 80.3287 122.203 80.8667 121.788C83.262 119.862 85.5417 117.796 87.6939 115.601C85.1684 118.055 82.4716 120.325 79.6239 122.396C80.0165 121.714 80.3616 121.006 80.6569 120.277C81.1949 118.937 81.2917 117.587 80.0167 116.871C78.4403 115.989 76.5358 117.307 77.0361 119.561C77.3415 120.819 77.9366 121.989 78.7739 122.977C76.9155 124.264 74.9745 125.427 72.9635 126.458L72.7752 126.555C73.2003 125.819 73.576 125.055 73.8996 124.268C74.4053 122.934 74.5345 121.578 73.254 120.868C71.6777 119.981 69.7731 121.304 70.2789 123.558C70.5791 124.8 71.1608 125.956 71.9789 126.937C69.5633 128.126 67.067 129.137 64.5814 130.235L64.221 130.396C64.7061 129.875 65.1572 129.324 65.5714 128.745C66.3784 127.561 66.8141 126.281 65.7381 125.285C64.4147 124.059 62.2465 124.898 62.2142 127.222C62.2157 128.505 62.514 129.77 63.0858 130.918C60.7599 132.005 58.55 133.324 56.4899 134.856L56.4254 134.91C56.704 134.468 56.959 134.012 57.1893 133.544C57.7973 132.247 58.0232 130.913 56.7966 130.1C56.5473 129.929 56.2625 129.816 55.9634 129.771C55.6643 129.725 55.3588 129.748 55.0699 129.838C54.781 129.927 54.5161 130.081 54.2952 130.288C54.0743 130.495 53.9031 130.749 53.7945 131.031C53.6328 130.779 53.4134 130.569 53.1543 130.418C51.9223 129.708 50.7118 130.477 49.6735 131.564C49.4045 131.849 49.1355 132.156 48.9041 132.457C49.7051 130.234 50.7119 128.09 51.9115 126.055C53.0539 126.554 54.2857 126.815 55.5323 126.824C57.9856 126.824 59.0185 124.78 57.8134 123.51C56.8342 122.482 55.457 122.875 54.155 123.628C53.7263 123.878 53.3114 124.151 52.9122 124.446C54.1594 122.568 55.5748 120.806 57.1409 119.184C58.1671 120.014 59.3597 120.614 60.6379 120.944C63.0212 121.53 64.5169 119.803 63.6561 118.281C62.9567 117.043 61.5041 117.092 60.0784 117.506C59.396 117.71 58.7275 117.958 58.077 118.248C58.728 117.613 59.4005 117.005 60.0838 116.403C60.9768 115.639 61.9022 114.902 62.8437 114.181C63.856 114.989 65.0275 115.574 66.2815 115.897C68.6649 116.484 70.1605 114.757 69.2997 113.234C68.6003 111.997 67.1477 112.045 65.7166 112.459C65.3831 112.556 65.0441 112.675 64.7159 112.798C65.9587 111.911 67.2176 111.044 68.4819 110.184L69.6494 109.382C70.7014 110.263 71.9364 110.899 73.2648 111.243C75.6481 111.83 77.1491 110.103 76.2883 108.58C75.5835 107.343 74.1363 107.391 72.7052 107.806C72.1421 107.978 71.588 108.177 71.0428 108.403L71.7637 107.865C72.2049 107.547 72.6461 107.225 73.0765 106.886C73.6145 106.482 74.1256 106.036 74.6474 105.605C74.9487 105.369 75.2338 105.116 75.519 104.857C76.5752 105.748 77.8182 106.39 79.1559 106.735C81.5392 107.321 83.0349 105.594 82.174 104.072C81.4747 102.835 80.022 102.883 78.5963 103.297C77.7968 103.544 77.0134 103.841 76.2507 104.185C77.2244 103.281 78.1659 102.34 79.059 101.36C79.1182 101.29 79.172 101.221 79.2366 101.156C79.6185 100.731 79.9951 100.301 80.361 99.854C80.7268 99.4075 81.2003 98.8211 81.5984 98.2831C83.2333 96.1372 84.579 93.7857 85.6011 91.2891C84.53 93.756 83.139 96.0713 81.4639 98.1755C79.8071 100.288 77.9574 102.243 75.9386 104.013L75.7181 104.201C76.1766 103.42 76.5828 102.61 76.9339 101.775C77.445 100.44 77.5688 99.0847 76.2883 98.3745C74.7174 97.4868 72.8075 98.8103 73.3132 101.065C73.638 102.399 74.2866 103.634 75.2016 104.658L74.7281 105.067L74.1901 105.53C73.8781 105.783 73.5553 106.025 73.2325 106.267C73.0603 106.396 72.8935 106.531 72.6945 106.66C72.2372 106.999 71.7745 107.327 71.3064 107.65L70.6339 108.107L69.87 108.645C70.3165 107.883 70.7085 107.09 71.0428 106.272C71.5539 104.933 71.6777 103.582 70.4026 102.872C68.8263 101.985 66.9164 103.308 67.4221 105.562C67.734 106.857 68.352 108.058 69.2244 109.065L68.6864 109.43L66.5936 110.802L66.1793 111.071L65.0118 111.851L64.5061 112.19C63.9681 112.562 63.4301 112.938 62.8921 113.326C63.3244 112.551 63.7019 111.748 64.0219 110.921C64.5599 109.586 64.6568 108.231 63.3817 107.521C61.8054 106.633 59.9008 107.956 60.4066 110.211C60.7226 111.523 61.3542 112.738 62.2465 113.751C61.3319 114.423 60.4281 115.112 59.5565 115.833C58.9163 116.371 58.2868 116.909 57.6681 117.49C57.9377 116.991 58.1784 116.477 58.3891 115.951C58.8948 114.611 59.0239 113.261 57.7435 112.551C56.1671 111.663 54.2626 112.987 54.7683 115.241C55.0686 116.482 55.6503 117.638 56.4684 118.619C54.7259 120.351 53.1565 122.248 51.7824 124.285C51.9384 123.697 52.057 123.101 52.1375 122.498C52.3097 121.078 52.1052 119.744 50.6903 119.357C48.9472 118.878 47.4192 120.621 48.4576 122.698C49.0549 123.841 49.9094 124.83 50.9539 125.587C49.5987 127.8 48.4669 130.143 47.5753 132.581C47.552 132.071 47.5017 131.563 47.4246 131.058C47.1825 129.643 46.6122 128.422 45.1435 128.449C43.3358 128.486 42.362 130.601 43.9491 132.29C44.7956 133.173 45.8286 133.854 46.9727 134.286C46.3608 136.168 45.8632 138.085 45.4824 140.026C45.4179 140.333 45.3695 140.64 45.3103 140.946C45.2457 141.006 45.1812 141.065 45.122 141.129C45.0574 140.866 44.9821 140.591 44.896 140.339C44.4441 138.983 43.6909 137.858 42.2437 138.117C40.4683 138.429 39.8281 140.656 41.6573 142.092C42.5869 142.802 43.6585 143.303 44.7992 143.561C44.7992 143.615 44.8422 143.663 44.8691 143.717C44.6701 145.175 44.5194 146.644 44.428 148.118C44.358 149.194 44.3204 150.318 44.2988 151.421C42.7602 151.421 41.6734 153.111 42.7333 154.94C43.1805 155.698 43.7536 156.375 44.428 156.941C44.5571 159.013 44.7615 161.084 45.0359 163.139C44.8183 162.938 44.5521 162.797 44.2634 162.73C43.9747 162.663 43.6736 162.672 43.3896 162.757C42.4212 163.021 41.9854 163.801 41.8294 164.758C41.4848 165.115 41.292 165.591 41.2914 166.087C40.5705 165.011 39.8872 163.935 39.2255 162.8C40.2357 162.026 41.0731 161.049 41.6842 159.932C42.8409 157.78 41.5335 155.892 39.8496 156.349C38.4723 156.726 38.171 158.125 38.2356 159.626C38.2571 160.195 38.311 160.763 38.397 161.326L37.6868 160.078C37.095 159.002 36.6108 157.926 36.0298 156.85C35.8899 156.586 35.7662 156.312 35.6532 156.043C36.7866 155.472 37.7888 154.671 38.596 153.692C40.1401 151.787 39.2094 149.694 37.4662 149.829C36.0459 149.942 35.481 151.26 35.2443 152.745C35.1521 153.392 35.0946 154.044 35.0721 154.698L34.5664 153.53C33.4893 150.882 32.6029 148.16 31.9141 145.385C33.197 144.93 34.3623 144.195 35.325 143.233C37.052 141.484 36.3364 139.316 34.5879 139.273C33.1676 139.241 32.4736 140.495 32.0862 141.963C31.8964 142.743 31.7545 143.533 31.6612 144.33C31.2846 142.738 30.9618 141.124 30.6928 139.488C30.5099 138.488 30.3915 137.471 30.2678 136.46C31.6468 136.186 32.9456 135.603 34.0661 134.754C36.0029 133.248 35.5779 130.988 33.8455 130.735C32.4413 130.515 31.5913 131.671 31.021 133.065C30.6871 133.944 30.4068 134.842 30.1817 135.755C30.0741 134.582 29.9504 133.404 29.8966 132.225C29.7352 129.793 29.7352 127.352 29.8966 124.919C29.651 127.35 29.5665 129.794 29.6437 132.236C29.6437 133.361 29.7406 134.48 29.8105 135.604C29.5032 134.84 29.1436 134.097 28.7345 133.382C28.0028 132.15 27.0237 131.23 25.6679 131.768C23.9947 132.457 23.8495 134.77 25.9477 135.782C27.1783 136.347 28.5282 136.604 29.8804 136.529C29.9773 137.536 30.0634 138.536 30.214 139.532C30.4238 141.146 30.6928 142.695 31.0102 144.261C30.666 143.661 30.2832 143.084 29.8643 142.534C28.9766 141.409 27.8898 140.613 26.6363 141.339C25.0707 142.238 25.2214 144.567 27.4325 145.283C28.6838 145.672 30.009 145.76 31.3008 145.541C31.9146 148.346 32.7217 151.106 33.7164 153.799L34.0338 154.606C33.7492 154.229 33.4419 153.87 33.1138 153.53C32.1185 152.497 30.9618 151.814 29.7621 152.669C28.2933 153.745 28.6861 156.005 30.9457 156.511C32.1927 156.763 33.4811 156.726 34.7117 156.403C34.8247 156.678 34.9376 156.941 35.0721 157.221C35.6101 158.329 36.089 159.464 36.6539 160.551L37.1219 161.493C36.8422 161.251 36.5516 161.019 36.2504 160.804C35.0775 159.981 33.8078 159.529 32.7964 160.589C31.5482 161.896 32.3552 164.07 34.6794 164.14C35.8894 164.168 37.0907 163.929 38.1979 163.44C38.865 164.645 39.5483 165.834 40.2907 167.002C40.5651 167.448 40.8287 167.889 41.1408 168.331C40.7187 167.945 40.2731 167.585 39.8065 167.255C38.6337 166.432 37.364 165.98 36.3472 167.039C35.1044 168.347 35.9114 170.52 38.2356 170.59C39.564 170.606 40.877 170.306 42.0661 169.713C42.4535 170.251 42.8516 170.789 43.2605 171.327C42.3943 172.333 42.6795 174.017 44.4387 174.787C45.2932 175.143 46.2039 175.345 47.1287 175.384C47.2363 175.47 47.3439 175.556 47.4623 175.637L47.5161 175.68C48.628 179.833 49.9461 183.925 51.4704 187.957C52.116 189.673 52.81 191.373 53.5255 193.063H47.0695V218.521H66.798V193.041H56.2962C55.3978 191.077 54.5316 189.092 53.7246 187.085C52.4065 183.793 51.2121 180.446 50.1738 177.052C50.3505 177.104 50.5302 177.145 50.7118 177.175C50.9508 177.224 51.1958 177.235 51.4381 177.208L51.1583 175.438H50.97C50.8578 175.422 50.7465 175.4 50.6365 175.373C50.388 175.302 50.1452 175.212 49.9102 175.104L49.6304 174.975C50.6687 174.613 51.633 174.066 52.4764 173.361C54.3433 171.747 53.8161 169.541 52.0729 169.353C50.6634 169.197 49.8671 170.391 49.3829 171.806C49.2377 172.21 49.1193 172.629 49.0171 173.038C48.9149 172.662 48.8127 172.285 48.7158 171.908C48.4307 170.795 48.1778 169.67 47.9196 168.546C49.0464 168.194 50.0936 167.626 51.0023 166.873C52.8692 165.259 52.3366 163.058 50.5988 162.87C49.1839 162.714 48.393 163.908 47.9088 165.323C47.7636 165.732 47.6398 166.157 47.5322 166.577C47.3708 165.759 47.2148 164.936 47.0695 164.113C46.9673 163.505 46.8705 162.891 46.779 162.278C46.7467 161.407 46.7306 160.535 46.7414 159.658C46.7414 159.179 46.7414 158.7 46.7844 158.222C47.8392 158.555 48.9455 158.695 50.0501 158.636C52.5033 158.475 53.4072 156.376 52.1267 155.187C51.083 154.214 49.7326 154.698 48.4791 155.526C47.917 155.908 47.378 156.323 46.8651 156.769C47.0162 154.721 47.3274 152.689 47.7958 150.69C48.0704 149.512 48.4135 148.352 48.8234 147.214C49.9483 147.602 51.1377 147.768 52.3258 147.704C54.7791 147.548 55.6829 145.45 54.4025 144.255C53.3641 143.287 52.0084 143.766 50.7548 144.599C50.3173 144.9 49.897 145.225 49.4959 145.573C49.969 144.46 50.5191 143.382 51.1422 142.345C52.3779 140.254 53.9275 138.365 55.7367 136.745C56.6743 137.61 57.7833 138.268 58.9916 138.676C61.3265 139.44 62.9459 137.826 62.2196 136.244C61.6117 134.959 60.1806 134.899 58.7065 135.206C58.1384 135.327 57.5779 135.482 57.0279 135.669L57.0656 135.636C59.0731 134.07 61.2365 132.714 63.5216 131.591C64.3278 132.646 65.3516 133.516 66.5236 134.141C68.7079 135.265 70.564 133.931 70.0798 132.252C69.6871 130.886 68.2829 130.601 66.7819 130.638C66.1923 130.67 65.605 130.735 65.0226 130.832C67.449 129.686 69.9238 128.605 72.3125 127.34H72.3663C73.4357 128.264 74.7045 128.927 76.0731 129.277C78.4565 129.869 79.9521 128.137 79.0913 126.587C78.3919 125.35 76.9393 125.404 75.5136 125.813C75.1101 125.931 74.7066 126.076 74.3139 126.227C75.9091 125.3 77.4552 124.29 78.946 123.203L79.0698 123.338V123.268C80.1499 124.199 81.4289 124.871 82.8089 125.231C85.1868 125.818 86.6879 124.091 85.8271 122.541C85.1492 121.374 83.7181 121.422 82.2709 121.837ZM44.6539 170.585C44.1643 170.015 43.7017 169.417 43.2497 168.815C43.3573 168.718 43.4757 168.61 43.5941 168.492C44.2664 168.702 44.9622 168.826 45.6654 168.863V168.976L45.9935 168.906C46.1657 169.756 46.3432 170.601 46.5315 171.446C46.3129 171.16 46.0274 170.931 45.7 170.781C45.3726 170.631 45.0134 170.564 44.6539 170.585ZM46.4078 150.329C46.241 150.964 46.1011 151.599 45.9666 152.239L45.8859 152.126C45.8859 150.813 45.9057 149.504 45.9451 148.199C45.9828 147.284 46.0473 146.375 46.128 145.46C46.5707 145.911 47.0573 146.317 47.5806 146.671C47.1253 147.868 46.7356 149.089 46.4132 150.329H46.4078ZM48.6136 144.304C48.6459 144.067 48.6728 143.825 48.6835 143.588V143.228C48.8772 143.168 49.0763 143.098 49.27 143.018C49.0548 143.443 48.8288 143.873 48.619 144.304H48.6136ZM51.4166 139.757C51.3236 139.545 51.1884 139.353 51.0192 139.194C50.85 139.035 50.6502 138.912 50.432 138.832C49.1032 138.294 48.0272 139.263 47.1718 140.5L47.1287 140.559H47.0426C46.9524 140.539 46.8606 140.526 46.7683 140.521C46.7619 140.446 46.7749 140.37 46.8059 140.301C47.1465 138.357 47.6065 136.437 48.1832 134.55C49.4182 134.706 50.6723 134.609 51.8685 134.265C52.6076 134.07 53.2504 133.613 53.6762 132.979C53.913 134.063 54.3648 135.09 55.005 135.997C53.6815 137.123 52.4805 138.385 51.422 139.763L51.4166 139.757Z" fill="white"/>
<path d="M214.925 195.048C214.925 195.048 212.322 189.232 211.697 188.635C211.073 188.038 206.086 186.23 204.703 181.641C203.321 177.052 200.695 164.801 207.313 165.603C213.93 166.405 212.322 179.236 214.726 178.832C217.131 178.429 212.725 157.99 216.932 155.16C221.139 152.331 227.956 154.961 227.154 165.786C226.353 176.611 224.749 182.819 226.153 182.222C227.558 181.625 231.566 179.413 231.566 184.024C231.566 188.635 227.757 191.841 225.551 192.04C223.345 192.239 222.323 192.444 222.323 192.444V195.446L214.925 195.048Z" fill="#2E353A" stroke="#2E353A" stroke-linecap="round" stroke-linejoin="round"/>
<path d="M212.806 183.777C211.294 182.346 209.906 180.958 209.266 179.683C207.996 177.138 207.038 169.999 207.038 169.999" stroke="white" stroke-width="0.5" stroke-linecap="round" stroke-linejoin="round"/>
<path d="M204.784 173.485C205.785 177.654 205.925 180.796 208.948 184.454C210.562 186.434 214.834 188.113 215.313 189.861C215.741 191.965 216.063 194.089 216.276 196.226L218.665 196.387C218.665 196.387 219.149 192.245 217.782 189.291" stroke="white" stroke-width="0.5" stroke-linecap="round" stroke-linejoin="round"/>
<path d="M205.451 166.797C205.451 166.797 203.665 168.169 204.3 171.548" stroke="white" stroke-width="0.5" stroke-linecap="round" stroke-linejoin="round"/>
<path d="M216.895 179.102L215.948 180.635" stroke="white" stroke-width="0.5" stroke-linecap="round" stroke-linejoin="round"/>
<path d="M217.223 178.569L216.895 179.101" stroke="white" stroke-width="0.5" stroke-linecap="round" stroke-linejoin="round"/>
<path d="M220.402 155.661C220.402 155.661 216.744 155.505 216.744 159.002C216.744 161.955 217.648 172.037 217.454 176.648" stroke="white" stroke-width="0.5" stroke-linecap="round" stroke-linejoin="round"/>
<path d="M223.27 184.309C223.184 185.509 223.13 186.359 223.13 186.682C223.13 188.43 227.579 181.748 229.651 181.592C229.651 181.592 231.717 181.431 230.92 185.251C230.631 186.669 229.96 187.981 228.979 189.045C227.999 190.11 226.747 190.887 225.357 191.292C223.604 191.771 222.172 190.975 221.855 191.771C221.602 192.707 221.441 193.666 221.376 194.633" stroke="white" stroke-width="0.5" stroke-linecap="round" stroke-linejoin="round"/>
<path d="M224.308 158.98C224.585 160.134 224.715 161.318 224.696 162.504C224.696 166.227 223.986 175.007 223.512 180.936" stroke="white" stroke-width="0.5" stroke-linecap="round" stroke-linejoin="round"/>
<path d="M222.468 155.984C222.946 156.257 223.333 156.665 223.582 157.156" stroke="white" stroke-width="0.5" stroke-linecap="round" stroke-linejoin="round"/>
<path d="M219.881 183.341L219.768 185.568" stroke="white" stroke-width="0.5" stroke-linecap="round" stroke-linejoin="round"/>
<path d="M220.72 157.888C220.72 157.888 219.767 158.206 220.085 161.547C220.349 164.307 220.085 176.837 219.961 181.114" stroke="white" stroke-width="0.5" stroke-linecap="round" stroke-linejoin="round"/>
<path d="M230.743 182.545C229.378 185.098 227.193 187.117 224.54 188.274C220.236 190.023 220.085 189.227 220.085 190.964C220.085 192.702 219.924 195.898 219.924 195.898" stroke="white" stroke-width="0.5" stroke-linecap="round" stroke-linejoin="round"/>
<path d="M224.776 218.505H210.875L207.899 198.367H227.752L224.776 218.505Z" fill="#DCD4EF" stroke="#2E353A" stroke-linecap="round" stroke-linejoin="round"/>
<path d="M229.457 195.193H206.194V200.584H229.457V195.193Z" fill="#DCD4EF" stroke="#2E353A" stroke-linecap="round" stroke-linejoin="round"/>
<path d="M148.445 204.947V194.015H116.251V204.947C116.246 208.508 115.04 211.963 112.829 214.755L111.42 216.53H153.276L151.867 214.755C149.656 211.963 148.45 208.508 148.445 204.947Z" fill="white" stroke="#2E353A" stroke-linecap="round" stroke-linejoin="round"/>
<path d="M114.271 212.603H150.425C149.127 210.26 148.445 207.625 148.445 204.947V194.015H116.251V204.947C116.25 207.625 115.569 210.26 114.271 212.603Z" fill="#DCD4EF"/>
<path d="M192.48 100.414H72.2102C69.6905 100.414 67.6479 102.456 67.6479 104.976V192.901C67.6479 195.421 69.6905 197.463 72.2102 197.463H192.48C195 197.463 197.042 195.421 197.042 192.901V104.976C197.042 102.456 195 100.414 192.48 100.414Z" fill="#2E353A" stroke="#2E353A" stroke-linecap="round" stroke-linejoin="round"/>
<path d="M67.6479 182.378H197.048V192.896C197.048 194.106 196.567 195.266 195.711 196.122C194.856 196.977 193.695 197.458 192.485 197.458H72.2156C71.0056 197.458 69.8452 196.977 68.9896 196.122C68.134 195.266 67.6533 194.106 67.6533 192.896V182.378H67.6479Z" fill="white" stroke="#2E353A" stroke-linecap="round" stroke-linejoin="round"/>
<path d="M190.538 106.455H74.1577V175.018H190.538V106.455Z" fill="white" stroke="#2E353A" stroke-linecap="round" stroke-linejoin="round"/>
<path d="M134.737 189.921C134.737 189.448 134.597 188.986 134.334 188.594C134.072 188.201 133.699 187.895 133.262 187.714C132.826 187.533 132.345 187.486 131.882 187.578C131.419 187.67 130.993 187.898 130.659 188.232C130.325 188.566 130.097 188.991 130.005 189.455C129.913 189.918 129.96 190.398 130.141 190.835C130.322 191.271 130.628 191.644 131.021 191.907C131.414 192.169 131.876 192.309 132.348 192.309C132.981 192.309 133.589 192.058 134.037 191.61C134.485 191.162 134.737 190.554 134.737 189.921Z" fill="#2E353A" stroke="#2E353A" stroke-linecap="round" stroke-linejoin="round"/>
<path d="M153.281 216.552H111.42V218.505H153.281V216.552Z" fill="white" stroke="#2E353A" stroke-linecap="round" stroke-linejoin="round"/>
<path d="M189.446 111.287H75.0725V117.296H189.446V111.287Z" fill="white" stroke="#2E353A" stroke-linecap="round" stroke-linejoin="round"/>
<path d="M93.9455 117.296L92.5737 113.584H75.0725V117.296V122.219V172.097H189.446V117.296H93.9455Z" fill="#DCD4EF" stroke="#2E353A" stroke-linecap="round" stroke-linejoin="round"/>
<path d="M105.857 144.47H159.485" stroke="#2E353A" stroke-width="2" stroke-linecap="round" stroke-linejoin="round"/>
<path d="M105.857 149.743H159.485" stroke="#2E353A" stroke-width="2" stroke-linecap="round" stroke-linejoin="round"/>
<path d="M105.857 155.015H159.485" stroke="#2E353A" stroke-width="2" stroke-linecap="round" stroke-linejoin="round"/>
<path d="M105.857 160.293H159.485" stroke="#2E353A" stroke-width="2" stroke-linecap="round" stroke-linejoin="round"/>
<path d="M156.649 130.413H108.052C107.552 130.413 107.056 130.315 106.594 130.125C106.131 129.934 105.711 129.654 105.357 129.301C105.003 128.947 104.721 128.528 104.529 128.066C104.337 127.604 104.238 127.109 104.237 126.609C104.237 126.109 104.334 125.613 104.525 125.151C104.716 124.688 104.996 124.268 105.349 123.914C105.702 123.56 106.122 123.279 106.584 123.086C107.046 122.894 107.541 122.795 108.041 122.794H156.649C157.15 122.794 157.647 122.892 158.11 123.083C158.573 123.275 158.994 123.556 159.348 123.91C159.702 124.264 159.983 124.685 160.175 125.148C160.366 125.611 160.464 126.108 160.464 126.609C160.463 127.109 160.364 127.604 160.172 128.066C159.98 128.528 159.698 128.947 159.344 129.301C158.99 129.654 158.57 129.934 158.107 130.125C157.645 130.315 157.149 130.413 156.649 130.413Z" fill="white" stroke="#2E353A" stroke-linecap="round" stroke-linejoin="round"/>
<path d="M156.649 130.413H150.01V122.784H156.649C157.151 122.783 157.647 122.881 158.11 123.073C158.573 123.264 158.994 123.545 159.348 123.899C159.703 124.254 159.983 124.674 160.175 125.138C160.366 125.601 160.465 126.097 160.464 126.598C160.465 127.099 160.366 127.596 160.175 128.059C159.983 128.522 159.703 128.943 159.348 129.297C158.994 129.651 158.573 129.932 158.11 130.124C157.647 130.315 157.151 130.413 156.649 130.413Z" fill="#2E353A" stroke="#2E353A" stroke-linecap="round" stroke-linejoin="round"/>
<path d="M155.17 123.752C154.854 123.456 154.457 123.26 154.03 123.19C153.602 123.119 153.164 123.177 152.769 123.356C152.374 123.534 152.042 123.826 151.813 124.194C151.584 124.562 151.47 124.989 151.484 125.422C151.499 125.855 151.641 126.274 151.893 126.626C152.146 126.978 152.497 127.247 152.903 127.4C153.308 127.552 153.75 127.581 154.171 127.482C154.593 127.384 154.976 127.162 155.272 126.846C155.469 126.637 155.623 126.391 155.725 126.123C155.827 125.854 155.875 125.568 155.866 125.281C155.857 124.994 155.791 124.712 155.673 124.451C155.554 124.189 155.385 123.954 155.175 123.758L155.17 123.752ZM154.955 126.55C154.717 126.802 154.41 126.978 154.073 127.056C153.735 127.134 153.382 127.11 153.058 126.988C152.734 126.865 152.453 126.649 152.252 126.367C152.05 126.086 151.936 125.75 151.925 125.404C151.914 125.058 152.005 124.716 152.188 124.422C152.371 124.127 152.637 123.894 152.953 123.75C153.268 123.607 153.619 123.56 153.961 123.616C154.303 123.672 154.621 123.828 154.874 124.064C155.214 124.383 155.414 124.824 155.429 125.29C155.444 125.756 155.273 126.209 154.955 126.55Z" fill="white"/>
<path d="M156.816 127.642C156.768 127.595 156.708 127.563 156.642 127.549C156.576 127.536 156.508 127.542 156.445 127.566L155.654 126.824C155.614 126.785 155.56 126.762 155.503 126.762C155.447 126.762 155.393 126.785 155.353 126.824L155.283 126.899C155.244 126.941 155.223 126.996 155.223 127.053C155.223 127.109 155.244 127.164 155.283 127.206L156.063 127.938C156.04 128.004 156.036 128.076 156.052 128.145C156.069 128.213 156.104 128.276 156.154 128.325L157.499 129.643C157.588 129.731 157.708 129.781 157.833 129.781C157.958 129.781 158.078 129.731 158.167 129.643C158.255 129.554 158.304 129.434 158.304 129.31C158.304 129.185 158.255 129.065 158.167 128.976L156.816 127.642Z" fill="white"/>
<path d="M170.707 153.423C170.864 153.812 171.098 154.167 171.395 154.464C171.691 154.762 172.045 154.997 172.434 155.155C173.042 155.403 173.854 155.349 174.791 155.876C176.905 157.065 182.183 156.005 186.008 156.414C189.833 156.823 194.987 152.589 194.987 152.589L210.164 153.423V138.359C210.164 138.359 194.325 139.02 190.893 137.697C187.46 136.373 183.635 133.608 181.919 133.737C180.203 133.866 166.08 135.454 166.08 135.454L170.702 153.423H170.707Z" fill="white" stroke="#2E353A" stroke-linecap="round" stroke-linejoin="round"/>
<path d="M166.78 92.6826C163.646 93.0295 160.686 94.2978 158.273 96.3272C155.86 98.3566 154.103 101.056 153.224 104.084C152.346 107.112 152.385 110.332 153.336 113.338C154.288 116.344 156.109 119 158.57 120.97C161.032 122.941 164.022 124.138 167.163 124.409C170.304 124.68 173.455 124.013 176.217 122.494C178.98 120.974 181.23 118.669 182.682 115.871C184.135 113.073 184.725 109.907 184.378 106.773C184.149 104.692 183.512 102.676 182.503 100.841C181.495 99.0063 180.134 97.3882 178.5 96.0796C176.865 94.7709 174.989 93.7973 172.978 93.2145C170.967 92.6316 168.861 92.4508 166.78 92.6826ZM169.943 121.24C167.43 121.519 164.889 121.046 162.644 119.882C160.399 118.718 158.549 116.914 157.329 114.698C156.109 112.483 155.573 109.955 155.79 107.435C156.006 104.915 156.965 102.516 158.545 100.541C160.125 98.5658 162.256 97.1037 164.667 96.3393C167.078 95.5749 169.661 95.5427 172.09 96.2466C174.52 96.9505 176.686 98.359 178.315 100.294C179.943 102.229 180.962 104.603 181.241 107.117C181.427 108.786 181.282 110.476 180.814 112.089C180.347 113.702 179.566 115.207 178.517 116.518C177.468 117.83 176.171 118.922 174.7 119.732C173.229 120.542 171.612 121.054 169.943 121.24Z" fill="white" stroke="#2E353A" stroke-linecap="round" stroke-linejoin="round"/>
<path d="M166.694 91.7733C163.56 92.1201 160.6 93.3885 158.187 95.4179C155.774 97.4473 154.017 100.147 153.138 103.174C152.26 106.202 152.298 109.423 153.25 112.429C154.202 115.434 156.023 118.091 158.484 120.061C160.945 122.032 163.936 123.228 167.077 123.499C170.218 123.77 173.369 123.104 176.131 121.584C178.894 120.065 181.143 117.76 182.596 114.962C184.048 112.163 184.639 108.997 184.292 105.863C183.825 101.662 181.709 97.8176 178.409 95.1755C175.11 92.5333 170.896 91.3096 166.694 91.7733ZM169.857 120.33C167.343 120.61 164.803 120.137 162.558 118.973C160.313 117.808 158.463 116.004 157.243 113.789C156.023 111.573 155.487 109.046 155.704 106.526C155.92 104.006 156.879 101.607 158.459 99.6315C160.039 97.6565 162.169 96.1943 164.58 95.4299C166.991 94.6656 169.575 94.6333 172.004 95.3372C174.434 96.0411 176.6 97.4496 178.228 99.3846C179.857 101.32 180.876 103.694 181.155 106.208C181.341 107.877 181.196 109.566 180.728 111.179C180.261 112.792 179.48 114.298 178.431 115.609C177.382 116.92 176.085 118.012 174.614 118.822C173.143 119.633 171.526 120.145 169.857 120.33Z" fill="white" stroke="#2E353A" stroke-linecap="round" stroke-linejoin="round"/>
<path d="M170.726 123.757L169.972 123.841C169.122 123.935 168.509 124.701 168.603 125.552L169.827 136.599C169.921 137.45 170.687 138.063 171.537 137.968L172.291 137.885C173.142 137.791 173.755 137.025 173.661 136.174L172.437 125.127C172.343 124.276 171.577 123.663 170.726 123.757Z" fill="#DCD4EF" stroke="#2E353A" stroke-linecap="round" stroke-linejoin="round"/>
<path d="M170.481 132.979L172.095 132.807C172.789 132.732 173.485 132.935 174.031 133.37C174.577 133.805 174.929 134.438 175.011 135.131L177.427 156.979C177.525 157.872 177.265 158.768 176.703 159.469C176.141 160.17 175.323 160.619 174.43 160.718H174.323C173.88 160.767 173.433 160.729 173.005 160.605C172.578 160.481 172.179 160.274 171.831 159.995C171.484 159.717 171.195 159.373 170.981 158.983C170.767 158.592 170.632 158.164 170.584 157.721L168.168 135.879C168.129 135.533 168.159 135.182 168.255 134.848C168.352 134.514 168.514 134.202 168.731 133.93C168.948 133.658 169.217 133.432 169.522 133.264C169.827 133.096 170.162 132.99 170.508 132.952L170.481 132.979Z" fill="#2E353A" stroke="#2E353A" stroke-linecap="round" stroke-linejoin="round"/>
<path d="M172.827 151.185C172.827 151.185 169.002 151.324 168.464 151.986C167.926 152.648 168.023 154.951 169.061 155.214C171.708 155.908 177.336 155.505 177.556 155.031C177.777 154.558 178.229 151.803 177.067 151.507C175.664 151.292 174.246 151.184 172.827 151.185Z" fill="white" stroke="#2E353A" stroke-linecap="round" stroke-linejoin="round"/>
<path d="M171.724 145.848C171.724 145.848 167.275 145.681 166.581 146.482C165.887 147.284 165.752 150.281 166.925 150.733C169.916 151.879 176.647 151.432 176.953 150.84C177.26 150.248 177.927 147.177 176.609 146.682C175.291 146.187 171.724 145.848 171.724 145.848Z" fill="white" stroke="#2E353A" stroke-linecap="round" stroke-linejoin="round"/>
<path d="M171.084 139.822C171.084 139.822 166.328 139.639 165.585 140.5C164.843 141.361 164.698 144.557 165.951 145.041C169.179 146.267 176.173 146.267 176.501 145.633C176.83 144.998 177.712 141.242 176.302 140.71C174.893 140.177 171.084 139.822 171.084 139.822Z" fill="white" stroke="#2E353A" stroke-linecap="round" stroke-linejoin="round"/>
<path d="M168.34 134.184C168.34 134.184 163.584 134.006 162.842 134.862C162.099 135.717 161.922 139.015 163.207 139.403C164.493 139.79 173.429 140.629 173.758 140C174.086 139.37 174.968 135.604 173.559 135.072C172.149 134.539 168.34 134.184 168.34 134.184Z" fill="white" stroke="#2E353A" stroke-linecap="round" stroke-linejoin="round"/>
<path d="M183.915 150.007C183.061 149.772 182.252 149.397 181.521 148.898C177.696 146.257 177.825 140.188 177.825 140.188L176.905 139.924C176.145 139.635 175.432 139.235 174.79 138.735C175.099 139.989 175.279 141.271 175.328 142.561C175.315 143.27 175.038 143.948 174.551 144.464C174.065 144.98 173.405 145.297 172.698 145.353C171.509 145.487 170.981 145.616 170.583 144.035C170.185 142.453 168.211 136.115 168.076 135.19C167.958 134.351 169.367 132.855 171.611 132.5C175.059 132.78 178.46 133.743 181.935 133.743C183.144 133.856 184.303 134.283 185.298 134.98" fill="white"/>
<path d="M183.915 150.007C183.061 149.772 182.252 149.397 181.521 148.898C177.696 146.257 177.825 140.188 177.825 140.188L176.905 139.924C176.145 139.635 175.432 139.235 174.79 138.735C175.099 139.989 175.279 141.271 175.328 142.561C175.315 143.27 175.038 143.948 174.551 144.464C174.065 144.98 173.405 145.297 172.698 145.353C171.509 145.487 170.981 145.616 170.583 144.035C170.185 142.453 168.211 136.115 168.076 135.19C167.958 134.351 169.367 132.855 171.611 132.5C175.059 132.78 178.46 133.743 181.935 133.743C183.144 133.856 184.303 134.283 185.298 134.98" stroke="#2E353A" stroke-linecap="round" stroke-linejoin="round"/>
<path d="M187.552 150.34C187.133 150.361 186.713 150.361 186.293 150.34H187.552Z" fill="white"/>
<path d="M187.552 150.34C187.133 150.361 186.713 150.361 186.293 150.34" stroke="#2E353A" stroke-linecap="round" stroke-linejoin="round"/>
<path d="M190.366 149.818C189.452 150.107 188.508 150.288 187.552 150.356L190.366 149.818Z" fill="white"/>
<path d="M190.366 149.818C189.452 150.107 188.508 150.288 187.552 150.356" stroke="#2E353A" stroke-linecap="round" stroke-linejoin="round"/>
<path d="M195.116 148.107H199.867" stroke="#2E353A" stroke-linecap="round" stroke-linejoin="round"/>
<path d="M195.514 149.426H197.494" stroke="#2E353A" stroke-linecap="round" stroke-linejoin="round"/>
<path d="M177.825 140.188C177.825 140.188 180.45 140.188 182.172 138.622" stroke="#2E353A" stroke-linecap="round" stroke-linejoin="round"/>
<path d="M174.731 138.563C174.656 137.847 174.506 137.14 174.285 136.454" stroke="#2E353A" stroke-linecap="round" stroke-linejoin="round"/>
<path d="M170.546 143.341C170.546 143.341 170.046 141.953 170.654 141.452C171.261 140.952 172.875 140.231 173.155 140.785C173.435 141.339 174.043 143.895 173.876 144.395L173.709 144.895" stroke="#2E353A" stroke-width="0.5" stroke-linecap="round" stroke-linejoin="round"/>
<path d="M243.472 160.175H197.984V137.815H243.472" fill="#DCD4EF"/>
<path d="M243.472 160.175H197.984V137.815H243.472" stroke="#2E353A" stroke-linecap="round" stroke-linejoin="round"/>
<path d="M201.319 158.679C201.884 158.679 202.342 158.221 202.342 157.657C202.342 157.092 201.884 156.635 201.319 156.635C200.755 156.635 200.297 157.092 200.297 157.657C200.297 158.221 200.755 158.679 201.319 158.679Z" fill="white" stroke="#2E353A" stroke-linecap="round" stroke-linejoin="round"/>
<path d="M129.028 116.521C129.418 116.364 129.772 116.13 130.07 115.834C130.367 115.537 130.602 115.184 130.761 114.794C131.008 114.186 130.949 113.379 131.482 112.438C132.665 110.329 131.611 105.051 132.02 101.221C132.429 97.3901 128.189 92.2468 128.189 92.2468L129.012 77.0698H113.948C113.948 77.0698 114.605 92.9085 113.287 96.3356C111.968 99.7627 109.198 103.599 109.327 105.315C109.456 107.031 111.054 121.143 111.054 121.143L129.002 116.521H129.028Z" fill="white" stroke="#2E353A" stroke-linecap="round" stroke-linejoin="round"/>
<path d="M68.3257 120.438C68.6703 123.572 69.9365 126.533 71.9642 128.948C73.9919 131.362 76.69 133.121 79.7174 134.002C82.7448 134.883 85.9654 134.846 88.9719 133.897C91.9785 132.947 94.6359 131.127 96.6082 128.668C98.5805 126.208 99.779 123.218 100.052 120.077C100.325 116.936 99.6609 113.784 98.1429 111.021C96.625 108.258 94.3216 106.006 91.5241 104.552C88.7266 103.098 85.5607 102.506 82.4267 102.851H82.389C78.1939 103.322 74.3572 105.439 71.7207 108.736C69.0842 112.033 67.8633 116.242 68.3257 120.438ZM96.8397 117.269C97.1199 119.784 96.6481 122.325 95.4841 124.572C94.32 126.818 92.5159 128.669 90.2998 129.891C88.0838 131.112 85.5554 131.649 83.0343 131.433C80.5133 131.217 78.1128 130.259 76.1364 128.679C74.16 127.099 72.6964 124.969 71.9308 122.557C71.1652 120.145 71.1319 117.561 71.8352 115.13C72.5384 112.699 73.9466 110.532 75.8817 108.902C77.8167 107.271 80.1918 106.252 82.7064 105.971C86.0786 105.596 89.4616 106.576 92.1118 108.694C94.762 110.813 96.4626 113.897 96.8397 117.269Z" fill="white" stroke="#2E353A" stroke-linecap="round" stroke-linejoin="round"/>
<path d="M67.3949 120.535C67.7427 123.667 69.0113 126.625 71.0403 129.037C73.0694 131.448 75.7677 133.203 78.7943 134.081C81.8209 134.959 85.0398 134.92 88.044 133.968C91.0483 133.017 93.7031 131.196 95.6727 128.736C97.6423 126.276 98.8383 123.287 99.1096 120.148C99.3808 117.008 98.7151 113.859 97.1967 111.097C95.6782 108.336 93.375 106.087 90.5785 104.634C87.7819 103.182 84.6175 102.591 81.4852 102.937C79.4042 103.166 77.3889 103.804 75.5544 104.813C73.7199 105.821 72.1022 107.182 70.7937 108.816C69.4852 110.45 68.5115 112.327 67.9283 114.337C67.3451 116.348 67.1639 118.454 67.3949 120.535ZM95.952 117.377C96.2313 119.89 95.7588 122.431 94.5944 124.676C93.4301 126.921 91.626 128.771 89.4105 129.991C87.1949 131.211 84.6673 131.747 82.1473 131.53C79.6274 131.314 77.2282 130.355 75.2532 128.775C73.2781 127.195 71.816 125.064 71.0516 122.653C70.2873 120.242 70.255 117.659 70.9589 115.23C71.6628 112.8 73.0713 110.634 75.0063 109.005C76.9412 107.377 79.3157 106.358 81.8295 106.079C83.4986 105.893 85.1879 106.038 86.801 106.506C88.4141 106.973 89.9193 107.754 91.2307 108.803C92.5421 109.852 93.634 111.149 94.4441 112.62C95.2542 114.091 95.7666 115.708 95.952 117.377Z" fill="white" stroke="#2E353A" stroke-linecap="round" stroke-linejoin="round"/>
<path d="M111.8 113.576L100.752 114.8C99.9019 114.894 99.2888 115.66 99.383 116.51L99.4665 117.264C99.5607 118.115 100.327 118.728 101.177 118.634L112.225 117.41C113.075 117.316 113.688 116.55 113.594 115.7L113.511 114.946C113.416 114.095 112.65 113.482 111.8 113.576Z" fill="#DCD4EF" stroke="#2E353A" stroke-linecap="round" stroke-linejoin="round"/>
<path d="M108.6 116.753L108.423 115.139C108.346 114.44 108.55 113.738 108.99 113.19C109.43 112.641 110.069 112.289 110.769 112.212L132.611 109.796C133.056 109.745 133.506 109.781 133.936 109.904C134.366 110.027 134.767 110.234 135.117 110.512C135.467 110.79 135.759 111.135 135.975 111.527C136.191 111.918 136.328 112.349 136.377 112.793V112.901C136.429 113.345 136.392 113.795 136.27 114.225C136.147 114.655 135.94 115.056 135.662 115.406C135.383 115.756 135.038 116.048 134.647 116.264C134.256 116.48 133.825 116.617 133.381 116.667L111.538 119.082C110.84 119.161 110.139 118.96 109.588 118.524C109.038 118.087 108.683 117.45 108.6 116.753Z" fill="#2E353A" stroke="#2E353A" stroke-linecap="round" stroke-linejoin="round"/>
<path d="M126.801 114.407C126.801 114.407 126.946 118.227 127.603 118.765C128.259 119.303 130.572 119.206 130.831 118.168C131.53 115.526 131.121 109.893 130.648 109.678C130.174 109.463 127.42 109 127.129 110.168C126.912 111.57 126.803 112.988 126.801 114.407Z" fill="white" stroke="#2E353A" stroke-linecap="round" stroke-linejoin="round"/>
<path d="M121.469 115.505C121.469 115.505 121.297 119.954 122.099 120.648C122.9 121.342 125.897 121.482 126.349 120.304C127.5 117.312 127.048 110.582 126.457 110.281C125.865 109.979 122.793 109.307 122.298 110.625C121.803 111.943 121.469 115.505 121.469 115.505Z" fill="white" stroke="#2E353A" stroke-linecap="round" stroke-linejoin="round"/>
<path d="M115.444 116.155C115.444 116.155 115.261 120.911 116.116 121.654C116.972 122.396 120.178 122.542 120.663 121.283C121.889 118.087 121.889 111.061 121.254 110.738C120.619 110.415 116.859 109.527 116.332 110.937C115.804 112.346 115.444 116.155 115.444 116.155Z" fill="white" stroke="#2E353A" stroke-linecap="round" stroke-linejoin="round"/>
<path d="M109.806 118.894C109.806 118.894 109.623 123.65 110.483 124.392C111.344 125.135 114.637 125.312 115.024 124.021C115.412 122.73 116.251 113.799 115.616 113.471C114.981 113.143 111.226 112.266 110.693 113.675C110.161 115.085 109.806 118.894 109.806 118.894Z" fill="white" stroke="#2E353A" stroke-linecap="round" stroke-linejoin="round"/>
<path d="M125.956 99.6658C126.176 101.785 125.667 103.916 124.514 105.708C121.878 109.538 115.804 109.404 115.804 109.404L115.541 110.329C115.254 111.088 114.853 111.799 114.352 112.438C115.607 112.13 116.89 111.95 118.182 111.9C118.889 111.92 119.563 112.202 120.074 112.689C120.586 113.177 120.899 113.837 120.953 114.541C121.087 115.73 121.217 116.258 119.635 116.65C118.053 117.043 111.715 119.028 110.79 119.163C109.951 119.281 108.455 117.872 108.1 115.628C108.385 112.18 109.348 108.774 109.348 105.304C109.461 104.093 109.887 102.932 110.586 101.936" fill="white"/>
<path d="M125.956 99.6658C126.176 101.785 125.667 103.916 124.514 105.708C121.878 109.538 115.804 109.404 115.804 109.404L115.541 110.329C115.254 111.088 114.853 111.799 114.352 112.438C115.607 112.13 116.89 111.95 118.182 111.9C118.889 111.92 119.563 112.202 120.074 112.689C120.586 113.177 120.899 113.837 120.953 114.541C121.087 115.73 121.217 116.258 119.635 116.65C118.053 117.043 111.715 119.028 110.79 119.163C109.951 119.281 108.455 117.872 108.1 115.628C108.385 112.18 109.348 108.774 109.348 105.304C109.461 104.093 109.887 102.932 110.586 101.936" stroke="#2E353A" stroke-linecap="round" stroke-linejoin="round"/>
<path d="M125.44 96.8682C125.599 97.3715 125.721 97.8857 125.806 98.4068L125.44 96.8682Z" fill="white"/>
<path d="M125.44 96.8682C125.599 97.3715 125.721 97.8857 125.806 98.4068" stroke="#2E353A" stroke-linecap="round" stroke-linejoin="round"/>
<path d="M123.724 92.1124V87.3618" stroke="#2E353A" stroke-linecap="round" stroke-linejoin="round"/>
<path d="M125.042 91.7196V89.7397" stroke="#2E353A" stroke-linecap="round" stroke-linejoin="round"/>
<path d="M115.804 109.404C115.804 109.404 115.804 106.778 114.239 105.057" stroke="#2E353A" stroke-linecap="round" stroke-linejoin="round"/>
<path d="M114.185 112.502C113.469 112.576 112.762 112.724 112.076 112.944" stroke="#2E353A" stroke-linecap="round" stroke-linejoin="round"/>
<path d="M118.962 116.667C118.962 116.667 117.574 117.167 117.074 116.554C116.574 115.94 115.853 114.332 116.407 114.057C116.961 113.783 119.516 113.17 120.017 113.336L120.517 113.498" stroke="#2E353A" stroke-width="0.5" stroke-linecap="round" stroke-linejoin="round"/>
<path d="M135.796 43.7568V89.2447H113.432V43.7568" fill="#DCD4EF"/>
<path d="M135.796 43.7568V89.2447H113.432V43.7568" stroke="#2E353A" stroke-linecap="round" stroke-linejoin="round"/>
<path d="M133.273 86.9314C133.838 86.9314 134.295 86.4737 134.295 85.9092C134.295 85.3446 133.838 84.887 133.273 84.887C132.709 84.887 132.251 85.3446 132.251 85.9092C132.251 86.4737 132.709 86.9314 133.273 86.9314Z" fill="white" stroke="#2E353A" stroke-linecap="round" stroke-linejoin="round"/>
<path d="M106.524 197.539C106.367 197.929 106.134 198.284 105.837 198.581C105.54 198.879 105.187 199.114 104.797 199.271C104.189 199.524 103.382 199.465 102.44 199.992C100.331 201.181 95.0537 200.127 91.2231 200.53C87.3925 200.934 82.2493 196.705 82.2493 196.705L67.0562 197.539V182.475C67.0562 182.475 82.8949 183.136 86.3273 181.818C89.7598 180.5 93.5849 177.724 95.3011 177.859C97.0174 177.993 111.14 179.575 111.14 179.575L106.524 197.539Z" fill="white" stroke="#2E353A" stroke-linecap="round" stroke-linejoin="round"/>
<path d="M110.424 136.831C113.558 137.178 116.518 138.446 118.931 140.476C121.344 142.505 123.101 145.204 123.98 148.232C124.858 151.26 124.82 154.481 123.868 157.486C122.916 160.492 121.095 163.148 118.634 165.119C116.173 167.089 113.182 168.286 110.041 168.557C106.9 168.828 103.749 168.162 100.987 166.642C98.2243 165.122 95.9746 162.818 94.5221 160.019C93.0695 157.221 92.4794 154.055 92.8263 150.921C93.2915 146.721 95.4063 142.877 98.7055 140.235C102.005 137.594 106.218 136.371 110.419 136.836L110.424 136.831ZM107.261 165.388C109.776 165.668 112.317 165.196 114.563 164.032C116.81 162.868 118.661 161.064 119.882 158.848C121.104 156.632 121.64 154.104 121.425 151.583C121.209 149.062 120.251 146.661 118.671 144.685C117.091 142.708 114.96 141.245 112.549 140.479C110.137 139.714 107.552 139.68 105.122 140.384C102.691 141.087 100.524 142.495 98.8935 144.43C97.2632 146.365 96.2433 148.74 95.9628 151.255C95.5881 154.627 96.5677 158.01 98.6862 160.66C100.805 163.31 103.889 165.011 107.261 165.388Z" fill="white" stroke="#2E353A" stroke-linecap="round" stroke-linejoin="round"/>
<path d="M110.521 135.922C113.653 136.27 116.612 137.538 119.023 139.568C121.434 141.597 123.19 144.296 124.067 147.323C124.945 150.349 124.905 153.569 123.953 156.573C123.001 159.577 121.18 162.232 118.72 164.201C116.259 166.17 113.27 167.366 110.13 167.636C106.99 167.907 103.841 167.241 101.08 165.721C98.3185 164.202 96.0699 161.898 94.6181 159.101C93.1662 156.304 92.5764 153.139 92.9232 150.006C93.1535 147.926 93.7914 145.911 94.8005 144.077C95.8096 142.244 97.1701 140.626 98.8043 139.318C100.439 138.01 102.314 137.037 104.325 136.454C106.335 135.872 108.441 135.691 110.521 135.922ZM107.358 164.479C109.872 164.759 112.414 164.287 114.66 163.123C116.907 161.959 118.758 160.155 119.979 157.939C121.2 155.723 121.737 153.194 121.522 150.673C121.306 148.152 120.348 145.752 118.768 143.775C117.188 141.799 115.057 140.335 112.646 139.57C110.234 138.804 107.649 138.771 105.219 139.474C102.788 140.177 100.621 141.586 98.9904 143.521C97.3601 145.456 96.3402 147.831 96.0597 150.345C95.6866 153.716 96.667 157.097 98.7855 159.745C100.904 162.393 103.987 164.092 107.358 164.468V164.479Z" fill="white" stroke="#2E353A" stroke-linecap="round" stroke-linejoin="round"/>
<path d="M104.774 169.276L103.55 180.323C103.456 181.174 104.069 181.94 104.92 182.034L105.674 182.117C106.524 182.212 107.29 181.598 107.384 180.748L108.608 169.7C108.702 168.85 108.089 168.084 107.239 167.99L106.485 167.906C105.634 167.812 104.868 168.425 104.774 169.276Z" fill="#DCD4EF" stroke="#2E353A" stroke-linecap="round" stroke-linejoin="round"/>
<path d="M102.903 204.888H102.795C102.351 204.839 101.92 204.703 101.528 204.487C101.136 204.271 100.791 203.979 100.513 203.629C100.234 203.279 100.027 202.877 99.905 202.447C99.7824 202.017 99.7463 201.566 99.7987 201.122L102.214 179.279C102.252 178.933 102.357 178.597 102.525 178.292C102.692 177.986 102.919 177.716 103.191 177.499C103.462 177.281 103.775 177.118 104.109 177.022C104.444 176.925 104.795 176.895 105.141 176.933L106.755 177.111C107.454 177.188 108.094 177.54 108.534 178.089C108.974 178.637 109.178 179.339 109.101 180.038L106.685 201.907C106.635 202.352 106.498 202.782 106.281 203.173C106.065 203.564 105.773 203.908 105.423 204.187C105.074 204.465 104.672 204.672 104.243 204.795C103.813 204.918 103.363 204.955 102.919 204.904L102.903 204.888Z" fill="#2E353A" stroke="#2E353A" stroke-linecap="round" stroke-linejoin="round"/>
<path d="M104.372 195.328C104.372 195.328 108.192 195.473 108.73 196.129C109.268 196.786 109.171 199.094 108.133 199.357C105.491 200.057 99.8581 199.648 99.6429 199.174C99.4277 198.701 98.965 195.946 100.132 195.65C101.535 195.435 102.953 195.328 104.372 195.328Z" fill="white" stroke="#2E353A" stroke-linecap="round" stroke-linejoin="round"/>
<path d="M105.491 190.007C105.491 190.007 109.94 189.835 110.634 190.636C111.328 191.438 111.468 194.434 110.29 194.886C107.299 196.032 100.568 195.586 100.267 194.994C99.9657 194.402 99.2932 191.33 100.611 190.835C101.929 190.34 105.491 190.007 105.491 190.007Z" fill="white" stroke="#2E353A" stroke-linecap="round" stroke-linejoin="round"/>
<path d="M106.142 183.965C106.142 183.965 110.898 183.787 111.64 184.643C112.382 185.498 112.528 188.705 111.274 189.184C108.046 190.416 101.052 190.41 100.724 189.781C100.396 189.151 99.5135 185.385 100.923 184.853C102.333 184.32 106.142 183.965 106.142 183.965Z" fill="white" stroke="#2E353A" stroke-linecap="round" stroke-linejoin="round"/>
<path d="M108.88 178.332C108.88 178.332 113.636 178.149 114.379 179.005C115.121 179.86 115.299 183.163 114.007 183.551C112.716 183.938 103.785 184.772 103.457 184.143C103.129 183.513 102.252 179.747 103.662 179.22C105.071 178.693 108.88 178.332 108.88 178.332Z" fill="white" stroke="#2E353A" stroke-linecap="round" stroke-linejoin="round"/>
<path d="M90.3838 194.51C92.26 194.584 94.1125 194.07 95.6831 193.041C99.5137 190.4 99.3791 184.331 99.3791 184.331L100.305 184.067C101.064 183.78 101.775 183.379 102.413 182.878C102.105 184.132 101.925 185.413 101.875 186.703C101.896 187.41 102.177 188.085 102.664 188.598C103.152 189.11 103.812 189.424 104.517 189.48C105.706 189.609 106.233 189.743 106.631 188.156C107.03 186.569 109.004 180.237 109.138 179.317C109.273 178.397 107.847 176.976 105.604 176.627C102.155 176.912 98.7497 177.875 95.2796 177.875C94.0694 177.988 92.9091 178.412 91.9117 179.107" fill="white"/>
<path d="M90.3838 194.51C92.26 194.584 94.1125 194.07 95.6831 193.041C99.5137 190.4 99.3791 184.331 99.3791 184.331L100.305 184.067C101.064 183.78 101.775 183.379 102.413 182.878C102.105 184.132 101.925 185.413 101.875 186.703C101.896 187.41 102.177 188.085 102.664 188.598C103.152 189.11 103.812 189.424 104.517 189.48C105.706 189.609 106.233 189.743 106.631 188.156C107.03 186.569 109.004 180.237 109.138 179.317C109.273 178.397 107.847 176.976 105.604 176.627C102.155 176.912 98.7497 177.875 95.2796 177.875C94.0694 177.988 92.9091 178.412 91.9117 179.107" stroke="#2E353A" stroke-linecap="round" stroke-linejoin="round"/>
<path d="M86.8545 193.967C87.6067 194.198 88.3797 194.354 89.1625 194.435L86.8545 193.967Z" fill="white"/>
<path d="M86.8545 193.967C87.6067 194.198 88.3797 194.354 89.1625 194.435" stroke="#2E353A" stroke-linecap="round" stroke-linejoin="round"/>
<path d="M82.0987 192.25H77.3481" stroke="#2E353A" stroke-linecap="round" stroke-linejoin="round"/>
<path d="M81.7057 193.568H79.7258" stroke="#2E353A" stroke-linecap="round" stroke-linejoin="round"/>
<path d="M99.39 184.331C99.39 184.331 96.7646 184.331 95.043 182.765" stroke="#2E353A" stroke-linecap="round" stroke-linejoin="round"/>
<path d="M102.489 182.706C102.563 181.99 102.711 181.283 102.93 180.597" stroke="#2E353A" stroke-linecap="round" stroke-linejoin="round"/>
<path d="M106.653 187.484C106.653 187.484 107.153 186.095 106.54 185.595C105.927 185.095 104.318 184.374 104.044 184.928C103.769 185.482 103.156 188.043 103.323 188.538L103.49 189.038" stroke="#2E353A" stroke-width="0.5" stroke-linecap="round" stroke-linejoin="round"/>
<path d="M33.7432 204.323H79.2311V181.958H33.7432" fill="#DCD4EF"/>
<path d="M33.7432 204.323H79.2311V181.958H33.7432" stroke="#2E353A" stroke-linecap="round" stroke-linejoin="round"/>
<path d="M74.8733 201.8C74.8733 202.002 74.9332 202.199 75.0456 202.367C75.1579 202.536 75.3175 202.667 75.5043 202.744C75.6911 202.821 75.8966 202.842 76.0949 202.802C76.2932 202.763 76.4753 202.665 76.6183 202.522C76.7613 202.379 76.8586 202.197 76.8981 201.999C76.9375 201.801 76.9173 201.595 76.8399 201.408C76.7625 201.222 76.6315 201.062 76.4634 200.95C76.2953 200.837 76.0977 200.777 75.8955 200.777C75.6244 200.777 75.3644 200.885 75.1727 201.077C74.981 201.268 74.8733 201.528 74.8733 201.8Z" fill="white" stroke="#2E353A" stroke-linecap="round" stroke-linejoin="round"/>
</svg>
